<svg xmlns="http://www.w3.org/2000/svg" viewBox="0 0 15.708 10"><defs><style>.cls-1{fill:#070707;}</style></defs><title>Asset 1</title><g id="Layer_2" data-name="Layer 2"><g id="Layer_1-2" data-name="Layer 1"><g id="Layer_1-2-2" data-name="Layer 1-2"><path id="Union_3601" data-name="Union 3601" class="cls-1" d="M7.761,9.728a.211.211,0,0,1-.071.065.147.147,0,0,0,.035.057l-.043-.043H7.639a.605.605,0,0,1,.115.086.327.327,0,0,1-.136-.079h0l.114.107a.5.5,0,0,1-.15-.078h0c0,.085.129.143,0,.078H7.546L7.618,10a3.371,3.371,0,0,1-.773-.479V9.464a.385.385,0,0,0-.171-.086,1.138,1.138,0,0,1-.293-.294c.071-.057.336.2.436.2l-.043-.05s0-.058.05-.058L6.7,9.106c-.128-.15,0-.107.115-.065s.2.072.157,0l-.179-.193.158.1h0a1.556,1.556,0,0,1-.115-.114H6.774c-.143.064-.279.136-.179-.05l.057-.05c-.057,0,0-.043.072-.107h0c-.1.093-.143.1-.186.1h0c0-.05.15-.136.1-.136a.573.573,0,0,1-.465.172c.122-.129.186-.279.365-.5l-.25.214c.064-.107,0-.064-.1,0h.036c-.1.136-.093.093-.236.229,0,0-.107,0,0-.114,0,0,.043-.072,0-.072H5.944l.043-.043c.036-.093-.222.079-.35.151a1.678,1.678,0,0,0,.329-.344s.043.122.05.093,0-.043.078-.093,0-.071-.05-.043-.1.036-.078,0h.057a.036.036,0,0,1-.036-.035h0L5.88,8.29a1.907,1.907,0,0,0,.143-.2.042.042,0,0,1-.05,0c-.115.086-.172.122-.172.079L5.908,8.1c0-.057,0,0-.064,0s-.071.05-.05,0,.043,0,.072-.035.042-.043,0-.043-.136.057-.344.214l.15-.143c-.15.079-.336.179-.178,0-.272.265-.244,0-.222,0S5.386,8,5.386,8c-.25.129-.114-.114-.171-.164l.207-.222a.845.845,0,0,0-.25.172c-.129.093-.251.186-.251.164l.129-.086c-.107,0-.107-.064-.107-.15l.15-.136c-.086.072-.1,0-.186.072.322-.379-.336,0,0-.429l-.279.257H4.614s-.036-.05.107-.2.086-.1.043-.086-.057,0-.043,0a1.032,1.032,0,0,0-.222.179c.043-.208-.207-.179,0-.458-.157,0-.429.157-.472.05h.057a.717.717,0,0,1,.272-.4.632.632,0,0,0-.193.071c-.122.05-.25.107-.222,0l.1-.064c0-.086-.107,0-.143,0l.079-.136c.064-.115-.1,0-.1,0l.079-.065c.085-.15-.143-.136-.251-.121h-.05a.882.882,0,0,0,.15-.136c-.293.207-.3.093-.386.093l.158-.057c-.122.043-.065,0,0-.108s.114-.143,0-.1l-.122.172c0-.064-.05-.036-.157.071a1.249,1.249,0,0,1,.186-.25c.071-.064.078,0,.157-.114l.15-.229-.214.128-.122.115a1.8,1.8,0,0,1,.265-.193c-.122.164-.215.136-.329.279a.14.14,0,0,1,0-.05c-.1-.065.057-.322-.151-.258.308-.3-.107-.143.308-.5,0-.042-.136,0-.329.122h0a.155.155,0,0,1-.136,0,1.8,1.8,0,0,0,.436-.229,2.676,2.676,0,0,0-.336.107l.208-.193c-.093.065-.058,0,0,0s.064-.071-.058,0l-.114.1c0-.071-.243.086-.315.086l.086-.071h0s-.072.036,0-.072H3a2.47,2.47,0,0,0,.258-.293c-.072,0-.293.2-.293.2a.855.855,0,0,1,.25-.229.719.719,0,0,0-.358.136V4.735H2.754c-.05,0-.143.05-.086,0s0-.1,0-.086-.093,0,.093-.143c.05-.071.1,0,.172-.128s-.05,0-.136.043-.165.114-.129.05.05,0,.05,0a.346.346,0,0,0-.172-.043c.244-.272-.128-.1.065-.344-.072.072-.107.05-.15.079h0s-.086.129-.122.129H2.146a2.186,2.186,0,0,0,.3-.215c0-.036-.093,0-.178.065s-.186.107-.186.057l.064-.222c-.15.107-.186.107-.2.1s0,0-.05,0a1.257,1.257,0,0,1,.25-.171c-.072,0,0-.1-.122,0v.042H1.9c-.05,0-.143.043-.086-.05l.143-.114a.663.663,0,0,0-.243.179c-.065,0,0,0,0-.065s.064-.078,0-.05c0-.05.164-.136.221-.207-.064,0,0,0,0-.079s.093-.114,0-.057h0a.1.1,0,0,0,.065,0c-.072,0-.072,0-.2-.072v.051s-.136.1-.086,0l-.286.128a.623.623,0,0,1,.15-.15.223.223,0,0,0-.122.043L1.5,3.469c.065-.05.115-.107.115-.05.171-.143,0-.071.057-.143-.136.072-.258.2-.351.258a.1.1,0,0,0,.058-.086l-.144.129c0-.065.136-.229,0-.172a.582.582,0,0,0,.237-.179c-.122,0,.05-.057.128-.157s-.064,0-.107.05-.107.078-.107,0l-.108.1c.05-.086-.05-.05,0-.143a.211.211,0,0,1-.136.1c.136-.079.079-.114.136-.186l-.071.05a.209.209,0,0,1,.136-.093c0,.043-.072.072,0,.043a1.034,1.034,0,0,0,.264-.2.188.188,0,0,1,0-.058h0a.88.88,0,0,0-.329.222c0-.057-.064,0-.143.036s-.164.1-.128,0,.236-.258.236-.315c-.165.108-.086.136-.229.215C1.2,2.7,1.087,2.732.98,2.768s-.193.065-.114-.057l.164-.157V2.518l-.079.1c-.057,0-.05-.05.1-.15-.179.086-.079,0-.079-.065,0,.079,0,.115.093,0s0-.057-.065-.057a.716.716,0,0,0,.151-.15c-.136.05-.143,0-.236,0l.1-.05c-.115,0,.093-.272-.115-.208s-.186.1-.25.1l.114-.122c-.193.107-.107.043-.193.107.043-.071.208-.193.172-.193a.71.71,0,0,0-.157.1.487.487,0,0,0,.128-.157c.093-.072.05-.05.165-.136H.808c-.035,0-.093.079-.093.043L.858,1.6H.844a1.437,1.437,0,0,0,.25-.164c-.135,0-.379.25-.515.357.043-.078,0-.064-.078-.057a.242.242,0,0,1-.086,0l.157-.107H.536l.136-.093c-.064,0-.057-.065-.271.086.05-.093,0-.2.107-.251-.1,0,0-.157-.229,0h0l-.107.065.107-.086h0V1.3c.043-.065.079-.129-.086,0,.115-.143.129,0,.243-.143s0-.043-.035-.036-.093.036.071-.093c-.114.036-.057.05-.2.143.279-.215,0-.1.136-.25C.286.987.351.987.215,1.052.286,1,.286.959.286.959L.143,1.08.551.715C.315.823.258.951.136.951.222.873.179.887.136.9S0,.937.072.858C.072.9.157.773.215.773H.122A.114.114,0,0,0,.165.715h0s-.058,0,0-.057A.625.625,0,0,0,.4.494l-.229.1L.422.436A.33.33,0,0,0,.308.458C.258.479.107.522.315.351H.358a.069.069,0,0,0,.035,0A1.125,1.125,0,0,1,.658.243a.749.749,0,0,0-.215.15C.393.443.429.415.486.379S.558.336.572.343L.443.465c.058,0,.086,0,0,.071a.783.783,0,0,1,.272-.1C.873.365.851.436.823.5S.758.629.866.579s.1-.128.164-.128A.941.941,0,0,1,.908.565L1.137.436H1.023c-.057,0-.2.065,0-.107h.1a1.477,1.477,0,0,1,.25-.086.565.565,0,0,0-.243.15c-.057.086.122-.05.158-.05L1.109.494c.043,0,.1,0,.071.042a.8.8,0,0,1,.251-.1c.157-.071.136,0,.107.065s-.064.128.043.078.1-.128.164-.128a1.018,1.018,0,0,1-.107.121c.122-.064.115-.036.1,0s0,.05.043,0a.518.518,0,0,0-.129.143C1.474.844,1.609.8,1.33.944c.129-.057.144-.043.151,0s0,.043.264-.107l.043-.05-.05.107h0s0,.036-.129.143H1.5c-.136.165.2,0,.2,0-.128.129-.071,0-.214.129,0,.064.1,0,.15,0l-.072.05c-.057.093,0,.043.1,0s.15-.1.042,0l.129-.093a.834.834,0,0,1-.272.229.316.316,0,0,0,.172-.064.977.977,0,0,1,.143-.158l.165.1c0,.036-.079.036-.079.036-.15.165-.057.15,0,.143s.215,0,0,.2a.8.8,0,0,1,.193-.121c0,.057.05.079,0,.157l-.007.05c.15-.035.293-.078.293,0a1.03,1.03,0,0,1-.143.093c.072,0,.043,0,0,.072s-.114.143.065,0c0,.078.135.064.25.05L2.7,1.853l-.05.057h.071c-.078.079-.093.071-.114.071s0,0-.143.086.114.036.129.115h0c.05-.043.1-.086.1-.058a.515.515,0,0,0-.143.136L2.7,2.146a.872.872,0,0,1-.179.136c.107-.065.136-.057.164-.05s.058,0,.143-.043c-.042.036-.243.136-.279.214s.051,0,.129,0c-.093.143-.064.058-.093.143h0L2.654,2.5l-.072.042c0,.072.115-.078.243-.128l.036-.086H2.94l-.079.043c-.05.064.143,0,.143,0L3.1,2.282h.086c-.2.164,0,.079-.265.25-.042.093.129.065.229,0h0c0,.043,0,.036.093,0h0a.609.609,0,0,1,.236-.078L3.4,2.5h0c-.437.293-.129.178-.48.429a2.6,2.6,0,0,0,.48-.308c.1-.057.1,0,.1,0a.15.15,0,0,0-.079.043c.186-.05.107.1.272.1a.1.1,0,0,1-.064,0c-.05,0-.1,0-.108.1s.244,0,.4,0c-.129.108-.157.093-.179.086s-.05,0-.172.072a1.337,1.337,0,0,0,.472,0c-.164.179-.093.157,0,.136s.144,0,0,.107a.373.373,0,0,1,.251-.007c-.115.078-.093.107-.172.164.093-.043.172-.05.15,0a.364.364,0,0,1,.022-.071v.093H4.235a.276.276,0,0,1-.086.129c.071-.051.071,0,.071,0s0,.05.1,0c-.064.121.065,0,.065.121.079-.121.1-.121.121-.121h0l-.143.143c.108-.079.279-.129.172,0a.283.283,0,0,1-.1.064.15.15,0,0,1,.186.086c.043.057.079.121.236.078l-.193.129c-.1.158,0,.065.157,0s.193-.136.193-.107c0,.215-.107.615.129.615.057,0,.143-.15.129-.121s-.158.157-.05.093l.093-.086c-.208.286.329,0,0,.422.093,0,.093,0,.1.043s0,.093.164,0c-.064.1-.178.121-.178.171h.143c.178-.1.121,0,.071.165s-.093.236.043.186a.163.163,0,0,0-.1.143l.164-.136a.54.54,0,0,1,.265,0c-.121.064-.071.1-.2.229.1-.065.186-.208.236-.172s-.043.186-.043.265c.136-.093.122-.043.272-.179h.171l-.05.114c.108-.078.086,0,.065,0s-.043.065,0,0L6.3,5.866h.086l-.251.228.086-.057-.05.05a.712.712,0,0,0,.343-.264c.058.064.222.057.222.136l-.122.1c.043,0,.086,0,0,.143l.136-.115c.086-.057.036,0,0,0s-.085.079,0,0a.836.836,0,0,0-.128.093l.2-.05c-.079.072-.172.3-.122.258A1.025,1.025,0,0,0,6.8,6.259H6.86l-.15.2L6.9,6.33l-.15.215A1.458,1.458,0,0,0,7,6.438c0,.164-.108.2-.215.4.15-.157.157-.121.165-.085s0,.064.121,0c-.171.286.065.25.065.393s0,0,.093,0,.15-.107.15-.057H7.318c-.065.114,0,.15.064.143L7.31,7.146l.093.079a.944.944,0,0,0,.2-.065.516.516,0,0,0-.129.122h0c.071-.05.157-.208.157-.129a.307.307,0,0,0-.093.1l.179-.121c-.036.128-.064.257,0,.307s0-.05.043-.05a.4.4,0,0,0,.1.093c.057,0-.05-.1-.136-.164.151.064.358.171.236.064s-.15-.229-.093-.229l.086.086c.122,0-.093-.107,0-.115s0,0,0,.043.079.072.065,0-.086-.121-.265-.307l.157.129c-.064-.1-.193-.287-.05-.194-.264-.2-.043-.2-.043-.2a.466.466,0,0,0,.108.1c-.172-.207.093-.143.136-.207l.257.207c0-.035-.415-.415-.415-.45l.107.107c0-.129.051-.129.129-.129l.165.122c-.065-.072-.043-.1-.1-.172.207.129.186.05.178,0s0-.164.236-.036L8.326,5.9s0-.114.236.05,0,0,.093,0a.637.637,0,0,0-.207-.186.2.2,0,0,0,.179-.043c.05-.05.107-.093.286,0-.036-.157-.222-.4-.129-.472a.72.72,0,0,1,.472.172c0-.107-.315-.4-.15-.4l.086.093c.064,0-.072-.135-.058-.135s0,0,.093.071-.042-.1-.042-.1l.114.057c.215.079-.043-.286.057-.329a.891.891,0,0,0,.158.129c-.244-.258-.151-.286-.151-.365l.093.1c-.064-.086,0-.043.093,0s.172.1.1,0l-.179-.093c.064,0,0-.05-.1-.143a.892.892,0,0,1,.271.143c.079.057,0,.072.136.143l.251.1c-.179-.164-.151-.171-.151-.178h-.05L9.75,4.456c.043-.107.322,0,.229-.193.157.1.2.086.236.072s.071-.043.257.114a.1.1,0,0,1,.057-.036,1.1,1.1,0,0,0-.164-.236h0a.388.388,0,0,1,0-.136,2.367,2.367,0,0,0,.236.351h0c-.043-.093-.093-.186-.143-.272l.222.172c-.072-.079,0-.057,0,0s.085.057,0-.05l-.065-.05V4.134c0-.057-.043,0-.079-.042s0-.072,0-.043a.489.489,0,0,1-.093-.165l.079.072h0s0-.065.093,0a1.582,1.582,0,0,0,.322.214c0-.064-.236-.257-.236-.257a.747.747,0,0,1,.207.193.705.705,0,0,0-.186-.372l.051.043c.078,0-.144-.272,0-.2s.1,0,.085,0-.043-.1.158.064c.078.043,0,.093.15.143s0-.05-.064-.122-.136-.143-.072-.121l.036.071a.387.387,0,0,0,0-.179c.157.1.171.065.193,0s.036-.093.222,0a.7.7,0,0,1-.179-.178l.05.05a1.626,1.626,0,0,0-.122-.158c-.043-.043,0,0,0-.043s-.043-.078,0-.057,0-.071,0-.071.151.143.258.257c.071,0-.279-.336-.179-.336l.165.1c-.208-.229-.079-.164-.165-.229a.63.63,0,0,1,.136.093c0-.064.114,0,0-.121h-.072c.05,0,0-.065,0-.115s-.071-.143,0-.1l.315.279c.072,0,.05,0,0-.05s-.043-.086,0-.05a.492.492,0,0,1-.129-.136c-.05,0,0,.107,0,.107l-.121-.221V2.6a.576.576,0,0,0-.208-.208c0-.064,0-.043.058,0s.093.043.042,0,.158.179.237.179c-.036-.043,0,0,.078,0s.143.079.065,0a.1.1,0,0,1,.064.064s0-.043-.072-.121h-.05s-.1-.093,0-.093a1.536,1.536,0,0,0-.136-.272s.086,0,.179.122c.043-.043-.322-.322-.128-.237a.1.1,0,0,0,.078,0c0,.065.265.208.165.208.086.086.093.064.1.043s0,0,.043,0a4.068,4.068,0,0,0-.308-.308h0l-.136-.1V1.788l.036.065s.272.143.179,0a.716.716,0,0,0,.214.2c-.042-.107.065,0,.179.1,0-.064-.214-.2-.086-.2a.2.2,0,0,0-.107-.093.059.059,0,0,0,.065,0s0-.036.071,0a.225.225,0,0,1-.122-.107c.093.092.122.05.2.092l-.057-.057a.212.212,0,0,1,.107.115c-.043,0-.072-.065-.043,0a1.165,1.165,0,0,0,.157.157h0V2.1l.136.079a1.049,1.049,0,0,0-.114-.151h0l-.057-.064h-.051c.058,0,0-.064-.064-.136s-.122-.15-.05-.129.293.186.343.186c-.128-.143-.136-.057-.243-.193.222.15.165.043.107-.057s-.078-.179.043-.122l.165.165h0a.055.055,0,0,0,0-.036l-.043-.207c0-.05.043-.058.164.078-.107-.164,0-.093.058-.093-.05,0-.072.05.043.093s.043,0,.043-.078a.5.5,0,0,0,.178.128.381.381,0,0,1-.085-.221l.05.05c0-.05.043-.05.1-.043s.136,0,.078-.108h0s0,.043-.064,0h.05c-.143-.121-.043-.135-.1-.214l.129.093L13,.944c.072.036.208.158.208.136a.341.341,0,0,0-.093-.107.4.4,0,0,0,.2.079c.079.078.136.135.164.135s-.136-.107-.064-.107l.107.129c.05,0,0-.043,0-.043l.2.2h0a3.16,3.16,0,0,0-.444-.429c.1.05,0-.136,0-.172L13.412.9V.866l.107.114c0-.064.058-.064-.128-.25h.035c.1.057.208,0,.265.057,0-.093.129-.036-.057-.215h.078c.043,0,.136.065,0-.078.144.085.043.128.179.207s.043,0,0-.043S13.834.551,14,.7c-.051-.114-.058-.05-.172-.172.15.129.164.1.172.079s0-.043.093,0C14.006.5,14.02.565,13.934.436c.057.065.093.065.093.065L13.92.329l.386.386c-.143-.229-.293-.257-.293-.386.1.072.064,0,.043,0s-.036-.093.036-.057c-.043,0,.071.079.114.129L14.185.272h.035c.072.05.058,0,.043,0s0-.043,0,0a.95.95,0,0,0,.208.207l-.1-.171.221.25h-.057a.134.134,0,0,0,.086.107c.057.036.043,0,0,0s-.057-.107.107.043h0L14.6.529h0l.122.1V.594a.312.312,0,0,1-.1-.072h0l.093.072L14.649.522h0c0-.071-.107-.186-.057-.171-.071-.058-.164-.122,0-.051a1.132,1.132,0,0,0,.15.136h0v.05a.11.11,0,0,0,.051,0l.042.079h.036a1.345,1.345,0,0,1-.143-.136h.065L14.721.358,15,.608h0A2.555,2.555,0,0,1,14.685.25a.539.539,0,0,0,.1.072h0l.058.064a.079.079,0,0,1,0-.043c.035,0,.057.043.064,0S14.714.265,14.7.286c-.072-.093,0-.086.093,0h0c0-.043-.043-.093.035-.057-.043,0,.072.086.115.129L14.9.272h.036c.071.05.057,0,.043,0s0-.043,0,0a.967.967,0,0,0,.207.207l-.1-.171.222.25h-.086a.578.578,0,0,0-.158-.165c.043.122.2.3.251.444s0,.129-.05.114-.129-.035-.065.065.158.071.158.136c-.151-.108-.1-.058-.151-.108.072.115,0,.1,0,.093s-.05,0,0,.05a.385.385,0,0,0-.186-.1c-.143-.143-.1-.057-.221-.214h0c.086.15-.143,0,.15.322L15,1.23h-.114l-.179-.093a.336.336,0,0,0-.043-.114c-.158-.115.057.157.057.193-.107-.107,0-.064-.157-.186v.057a.073.073,0,0,1,.043.072h0l-.065-.065c-.086-.042,0,0,.036.086s.15.15,0,.057l.107.115a.958.958,0,0,1-.257-.222v.05h0a.743.743,0,0,0,.078.122.6.6,0,0,1,.244.114v.158L14.7,1.5c-.194-.121-.165,0-.143.065s.057.2-.194.05c.115.085.086.093.151.164-.058-.036-.065,0-.151,0L14.3,1.7c0,.151.086.294,0,.294l-.114-.122c.042.072,0,.043-.086,0s-.143-.079,0,.064h0c-.122,0,0,.279,0,.38-.193-.143,0-.058-.193-.229-.108,0,0,.157-.108.157l.043-.1c-.15-.043.172.172.107.172a.4.4,0,0,0-.157-.115l.129.165-.157-.151c.143.179,0,.122.143.287-.043,0-.158-.208-.258-.236s-.05.05,0,.121c-.157-.064-.064-.05-.157-.064s.086.086.164.214h.1v.108l-.064-.093c-.093-.043,0,.143,0,.143l.143.057v.107c-.2-.179-.086,0-.3-.222-.079,0-.072.072-.043.158l.035.086h0c-.042,0,0,0,0,.093s0,0-.035,0,.114.136.114.229a.435.435,0,0,0-.15-.136.8.8,0,0,1,.129.143c-.351-.372-.215-.122-.451-.351h0a2.3,2.3,0,0,0,.286.351c.107.086.05.086.05.086a.236.236,0,0,0-.057-.065c.079.172-.1.129-.057.286-.036-.043,0-.157-.136-.143s.093.236.093.394c-.25-.222,0-.108-.208-.322a1.456,1.456,0,0,0,.093.493c-.214-.164-.171-.093-.143,0s.05.122-.1,0a.3.3,0,0,1,.129.193c-.1-.093-.122-.071-.186-.135.093.1.079.214-.165,0,.237.207-.05,0,.1.207-.115-.05,0,.079-.115.079.143.1.065.1.079.15h0c-.072-.057-.043,0,0,0s.043.071,0,.057l-.158-.114c.079.093.151.257,0,.164a1,1,0,0,0-.078-.093c.093.258-.222.172-.093.458L12.3,4.735c-.286-.128.265.329.193.329-.2.065-.586,0-.586.229.05.058.179.115.15.115s-.186-.093-.107,0l.107.078c-.15-.093-.157,0-.164,0s0,.136-.265,0c.129.186-.179,0,0,.272-.186-.036-.186-.15-.258-.15l.043.15c.129.165,0,.129-.143.093s-.257-.057-.186.065a.227.227,0,0,0-.15-.072.452.452,0,0,0,.143.093v.272c-.079-.115-.107-.05-.25-.165.078.093.236.158.207.215s-.186,0-.272,0c.115.122.065.114.222.243-.05.057,0,.143-.05.208l-.057-.043c.1.1.043.086,0,.064s-.079,0,0,0L10.73,6.6l.043.079a.8.8,0,0,0-.272-.207c.121.135.1.064.207.171l-.193-.136a.825.825,0,0,0,.279.222c-.05.064,0,.236-.093.236l-.114-.1c0,.057,0,.122-.144.057l.136.115c.065.078,0,.043,0,0s-.071-.05-.064,0a.236.236,0,0,0-.086-.086l.086.193c-.093-.072-.329-.172-.279-.072a.572.572,0,0,0,.143.079V7.21l-.222-.143.158.172L10.143,7.1a1.334,1.334,0,0,0,.2.243,1.356,1.356,0,0,1-.422-.15c.329.279-.071.072.158.279-.308-.129-.229.129-.372.129s.221.221.121.221l-.043-.042c-.193-.086-.1.135,0,.293-.043-.05-.2-.165-.15-.1s.243.143.158.143a.69.69,0,0,0-.115-.079l.15.157c-.171,0-.357,0-.314.136A.52.52,0,0,1,9.335,8.2c0,.093.071.258.071.337l-.2-.143s.293.236.093.143c-.036,0,0,0-.079-.1s.172.208.108.208L9.12,8.462c-.164-.057.079.129.2.243s.036.072-.057,0l-.057.072h0c.064-.036.107-.072.036,0h0c-.043,0,0,0,0,.057L9.3,8.87l-.072.1v.036L9.07,9.2a.318.318,0,0,1,.057.079l-.086-.051h0a.273.273,0,0,1,.086.072l-.086-.072h0l-.057.058h0l-.057.057h0l-.05.05.071.057h-.1a.83.83,0,0,1-.078.079h0c0,.036.043.079.143.172-.158-.122-.186-.108-.215-.093s0,0-.043,0v.042a.2.2,0,0,0,.072.065l-.072-.05h0l-.086.086a.14.14,0,0,0,0,.05l-.043-.043-.042.036.114.085a.355.355,0,0,1-.136-.071h0l.115.1a.378.378,0,0,1-.151-.079h0c0,.079.129.143,0,.072H8.391l.071.079A3.55,3.55,0,0,1,7.761,9.728Zm.408.172Zm-.715,0Zm.793-.1h0l-.064-.043Zm-.715,0h0l-.064-.043Zm.715,0h0l-.121-.065a.357.357,0,0,0,.1.086Zm-.715,0h0l-.121-.065a.357.357,0,0,0,.1.086Zm.794-.086Zm-.715,0Zm1.266-.773a.17.17,0,0,0,.057-.05h0l-.043.057Zm0,0h0ZM9.1,8.8l.071-.057H9.134l-.057.064Zm-.029,0,.057-.064H9.092l-.136-.072V8.7h0l.057.057h.079L9.034,8.8Zm.165-.729a.092.092,0,0,1-.043-.05l.035.05Zm-1.86-.358a.21.21,0,0,0,.093-.057h0a.323.323,0,0,1-.072.071ZM7.768,7.5v.035C7.818,7.539,7.811,7.539,7.768,7.5ZM1.774,3.777h.157l.215-.15h0v-.05H2.01a.37.37,0,0,1-.129.071H2Zm.057-1.366h0a.142.142,0,0,0,0-.058A.188.188,0,0,0,1.831,2.411Zm0-.122a.387.387,0,0,1,.107-.05h0Zm0-.036h0Zm.715-.05H2.511c0,.065,0,.043.043,0Zm-.822-.129a.062.062,0,0,0,0,.05A.106.106,0,0,1,1.724,2.074Zm-.229-.4h.057l.1-.057H1.588a1.622,1.622,0,0,0,.25-.186,1.152,1.152,0,0,0-.364.257Zm.093,0h0Zm-.272-.043.093-.072h0Zm-.057-.2h0a.316.316,0,0,0-.086-.065C1.144,1.359,1.18,1.431,1.259,1.431Zm13.212-.072a1.61,1.61,0,0,0-.358-.365.628.628,0,0,0,.15.193V1.144A1.921,1.921,0,0,0,14.471,1.359ZM.88,1.359H.937a.322.322,0,0,0,.086-.05h0l.121-.129H1.2c.035-.057,0-.043-.065-.036s-.1.036.065-.092c-.115.035-.058.05-.2.143.279-.215,0-.1.136-.251-.121.072-.057.072-.186.129h0L.88,1.13v.036c0-.036-.065,0-.115.043H.908l-.071.05c-.057.093,0,.043.1,0s.15-.1.043,0l.129-.093a.758.758,0,0,1-.265.186Zm12.954-.071h.036a.146.146,0,0,0,0-.051h-.036A.146.146,0,0,0,13.834,1.288Zm0-.072h0a.2.2,0,0,1-.079-.093h0a.175.175,0,0,0,.036.093ZM.765,1.166l.079-.057Zm.122-.093H.944c.065-.043.065-.079.065-.079L.83,1.116l.436-.4a.839.839,0,0,0-.243.151l-.129.157H.78C.715,1.152.794,1.109.887,1.073Zm13.047,0a.155.155,0,0,0,0-.043ZM.615.944c.122-.057.143-.05.15,0a.08.08,0,0,1,0-.057C.765.93.851.8.908.8H.858C.794.83.837.83.615.944Zm.15,0h0ZM15.021.715A1.013,1.013,0,0,0,14.843.5a1.08,1.08,0,0,0,.093.121H14.9ZM.265.622.379.579A.336.336,0,0,0,.265.622Zm.758,0h0Zm13.419,0c.043,0,.093.043.072,0h0a.574.574,0,0,0-.158-.164.522.522,0,0,0,.086.15ZM1.023.565h0A.714.714,0,0,0,1.116.494L1.023.536A.036.036,0,0,1,1.023.565ZM8.834,9.406l.107.093Zm.207-.071c.043,0,.065.057.051.057h0ZM6.688,9.256h0L6.645,9.22a.154.154,0,0,1,.036.036l-.036-.1.079.122h0Zm-.25-.536h0ZM5.9,8.584h.036l-.036.05ZM10.443,7.06a.126.126,0,0,1,.036.05ZM6.33,5.923l-.085.086A.331.331,0,0,1,6.33,5.923ZM3.3,5.258h0Zm-.179-.151s.114,0,0,.093H3.054a.219.219,0,0,1,.065-.107Zm-.6-.715-.172.15h0a1.165,1.165,0,0,1,.186-.15Zm10.293-.179h.065l.085.065ZM10.25,4.149v0Zm2.754,0,.072-.043a.064.064,0,0,1,0,.043H13ZM1.974,4.106,1.91,4.17Zm-.665-.529h.122a.289.289,0,0,1-.143,0Zm3.2,0h0ZM1.431,3.526h0v0Zm9.513-.379c0-.064.179.143.179.143ZM4.22,3.212h0v0Zm9.349-.179a.322.322,0,0,1,.058.079A.553.553,0,0,1,13.569,3.033Zm-.035-.05a.126.126,0,0,1,.035.05.257.257,0,0,1-.035-.057Zm0-.093a.065.065,0,0,1,.05.071h0l-.058-.1ZM.951,2.861h0Zm10.258-.214.071.057ZM3.376,2.561l-.071.086s0-.05.071-.079Zm-.086,0h0Zm-.064,0H3.147C3.147,2.5,3.219,2.511,3.226,2.561Zm.143,0A.288.288,0,0,1,3.29,2.6Zm-2.525,0,.143-.107c-.079.064-.107.107-.136.107Zm12.8-.086c.086.079.057.079.057.079ZM2.754,2.31l-.086.043C2.754,2.282,2.754,2.31,2.754,2.31ZM14.02,2.246V2.189l.114.121ZM.858,2.01l-.043.064ZM.536,1.953l-.05.057ZM.665,1.8h0s-.007-.014,0-.021ZM.443,1.71l-.078.05Zm.093-.079a.578.578,0,0,1-.114.057A.349.349,0,0,1,.536,1.631Zm11.753-.2h0v0ZM.215,1.338a.231.231,0,0,1-.122.093S.172,1.338.215,1.338ZM12.639,1.28l.136.136C12.7,1.338,12.647,1.323,12.639,1.28ZM.036,1.166A1.019,1.019,0,0,0,.2,1.044V1.13c0-.036-.064,0-.114.043L0,1.23S0,1.216.036,1.166Zm15.021-.079.057.057Zm-13.169,0-.043.036ZM13.09.916l.05.035ZM1.059.851,1.023.916A.276.276,0,0,1,1.059.851Zm14.363,0h.05l.043.043V.93l-.1-.036ZM13.348.715h0a.3.3,0,0,1,.078.108Zm2.1.043.05.05ZM1.717.715l-.072.05Zm13.755,0,.057.058Zm-2.217,0,.064.072ZM15.4.68,15.315.529h0l.121.1-.1-.114h0c-.043-.1-.179-.286.065-.079v.05h.05a.664.664,0,0,1,.071.229Zm0-.086h.035a1.345,1.345,0,0,1-.143-.136h.065a.451.451,0,0,1,.15.286A.594.594,0,0,0,15.4.594Zm-1.817,0L13.541.443l.193.208Zm1.981.05V.572A2.547,2.547,0,0,1,15.25.215l.1.071h0c.179.2.108.136.258.315h-.036V.644ZM15.422.5V.458l.064.064Zm-.715,0V.458l.064.064Zm.6,0h0s-.008.007,0,.007Zm.264-.186a.819.819,0,0,1,.136.107V.486Zm-2.031.05c0,.036.114.064.114.114A.219.219,0,0,1,13.541.365Zm.315.057c.078,0-.279-.25-.065-.136a1.132,1.132,0,0,0,.15.136ZM15.415.286c-.072-.093,0-.086.093,0s0,.05.036.086C15.494.3,15.429.265,15.415.286ZM1.466.322s.05-.064,0-.05h0c.05,0-.05.114-.05.114h.015A.09.09,0,0,1,1.466.322Zm-.715,0S.8.258.751.272h0C.8.272.7.386.7.386H.715A.089.089,0,0,1,.751.322ZM.923.279h0c.229-.143.157-.079.35-.2a2.161,2.161,0,0,1-.45.293Zm-.68,0C.107.343.107.265.229.186S.3.15.3.186h0S.179.279.215.279C.443.136.372.2.565.079A2.168,2.168,0,0,1,.114.372Zm.794,0A.431.431,0,0,1,1.345.193L1.18.272c.043-.043.072-.079,0-.043L.994.351Zm-.715,0A.43.43,0,0,1,.629.193,1.02,1.02,0,0,0,.4.315.166.166,0,0,0,.443.229L.279.351Zm.858,0a.2.2,0,0,1-.057.05h0L1.2.279Zm.294.036L1.431.322Zm-.716,0L.715.322ZM1.431.25s0,.036-.058.036ZM.715.25A.249.249,0,0,1,.629.286ZM.944.165c.1-.058.043,0,.1,0A.413.413,0,0,0,.923.272H.88C.837.279.866.207.944.165Zm.487.078h0Zm-.716,0h0ZM1.116,0h.043L.987.129h0ZM.4,0H.443L.272.129h0Zm.858.107c.05-.035.05,0,.05,0Zm-.715,0c.05-.021.05.015.05.015Z"/></g></g></g></svg>