<svg id="Layer_1" data-name="Layer 1" xmlns="http://www.w3.org/2000/svg" viewBox="0 0 22 14.001"><defs><style>.cls-1{fill:#fff;}</style></defs><title>arrowDown</title><path class="cls-1" d="M1.618,0l-.06.02c-.07.05-.23.17-.18.16Z" transform="translate(0)"/><path class="cls-1" d="M1.788.11c-.27.17-.17.08-.49.28-.005,0,0-.005,0-.006-.043.047-.088.093-.136.136A2.841,2.841,0,0,0,1.788.11Z" transform="translate(0)"/><path class="cls-1" d="M1.292.368c-.005.009,0,.012,0,.016L1.318.36A.186.186,0,0,1,1.292.368Z" transform="translate(0)"/><path class="cls-1" d="M1.458.23c-.08,0,0-.08-.14,0S1.16.423,1.292.368A.6.6,0,0,1,1.458.23Z" transform="translate(0)"/><path class="cls-1" d="M1.978.34l-.1.06C1.928.4,1.958.34,1.978.34Z" transform="translate(0)"/><path class="cls-1" d="M5.868,4.489v.08S5.888,4.509,5.868,4.489Z" transform="translate(0)"/><path class="cls-1" d="M5.977,4.82l.06-.13a.778.778,0,0,0-.12.13Z" transform="translate(0)"/><path class="cls-1" d="M1.548.451,1.566.445,1.6.424C1.582.435,1.563.439,1.548.451Z" transform="translate(0)"/><path class="cls-1" d="M4.412,3.582c.057-.017.1-.034.1-.04S4.445,3.531,4.412,3.582Z" transform="translate(0)"/><path class="cls-1" d="M4.548,3.608c.018-.009.034-.016.052-.026Z" transform="translate(0)"/><path class="cls-1" d="M4.618,3.743a.71.71,0,0,1,.111-.115C4.665,3.671,4.618,3.709,4.618,3.743Z" transform="translate(0)"/><path class="cls-1" d="M4.6,3.582a.629.629,0,0,0,.108-.061C4.671,3.543,4.635,3.563,4.6,3.582Z" transform="translate(0)"/><path class="cls-1" d="M1.448.411,1.388.49a1.728,1.728,0,0,0,.23-.17c.148-.067.076.027-.02.1A1.177,1.177,0,0,1,1.878.27.65.65,0,0,0,1.448.411Z" transform="translate(0)"/><path class="cls-1" d="M6.354,5.016l.011,0a.251.251,0,0,0-.067,0A.077.077,0,0,0,6.354,5.016Z" transform="translate(0)"/><path class="cls-1" d="M3.848,3.231s0-.04-.12.06Z" transform="translate(0)"/><polygon class="cls-1" points="5.868 4.479 5.858 4.479 5.868 4.489 5.868 4.479"/><path class="cls-1" d="M3.878,3.231c0,.01-.04.06,0,.05Z" transform="translate(0)"/><path class="cls-1" d="M1.828.17s0-.05-.07,0Z" transform="translate(0)"/><path class="cls-1" d="M2.058.51s.14-.18.07-.16l-.07.04C2.188.31,1.908.59,2.058.51Z" transform="translate(0)"/><polygon class="cls-1" points="20.56 0.41 20.56 0.41 20.56 0.41 20.56 0.41"/><path class="cls-1" d="M9.331,12.888c.022.018.041.031.052.03l-.1-.156Z" transform="translate(0)"/><path class="cls-1" d="M14.36,5.867a.5.5,0,0,1-.026-.086C14.312,5.8,14.36,5.867,14.36,5.867Z" transform="translate(0)"/><path class="cls-1" d="M14.82,5.375a1.209,1.209,0,0,1,.188.17C14.918,5.457,14.82,5.375,14.82,5.375Z" transform="translate(0)"/><path class="cls-1" d="M9.333,12.9l0-.007a.3.3,0,0,1-.051-.043S9.308,12.87,9.333,12.9Z" transform="translate(0)"/><path class="cls-1" d="M9.333,12.9l.017.041C9.4,12.965,9.37,12.93,9.333,12.9Z" transform="translate(0)"/><polygon class="cls-1" points="20.401 0.724 20.402 0.726 20.409 0.732 20.401 0.724"/><path class="cls-1" d="M16.94,2.431c.033.016.048.052.073.078l.007,0Z" transform="translate(0)"/><path class="cls-1" d="M20.4.726C20.392.716,20.38.709,20.37.7a.148.148,0,0,1,.018.071L20.4.783C20.417.779,20.412.756,20.4.726Z" transform="translate(0)"/><path class="cls-1" d="M18.63,1.438c.08,0-.11-.11,0,0Z" transform="translate(0)"/><path class="cls-1" d="M20.53.673a.492.492,0,0,0,.034.061l.027.013C20.569.724,20.554.7,20.53.673Z" transform="translate(0)"/><path class="cls-1" d="M19.37.59h.12C19.4.53,19.28.44,19.28.4,18.98.24,19.48.55,19.37.59Z" transform="translate(0)"/><path class="cls-1" d="M18.93.51a.305.305,0,0,0,.16.16C19.09.6,18.97.56,18.93.51Z" transform="translate(0)"/><path class="cls-1" d="M17.86,1.98l-.19-.19C17.68,1.85,17.75,1.87,17.86,1.98Z" transform="translate(0)"/><polygon class="cls-1" points="17.174 2.01 17.204 2.11 17.194 2.04 17.174 2.01"/><path class="cls-1" d="M15.271,4.4l.25.2S15.221,4.309,15.271,4.4Z" transform="translate(0)"/><path class="cls-1" d="M.618,0,.558.02C.488.07.328.19.378.18Z" transform="translate(0)"/><path class="cls-1" d="M.788.11C.518.28.618.19.3.39c-.05,0,.06-.1.16-.16C.378.27.488.15.318.26s-.17.22.02.13a2.051,2.051,0,0,1-.18.13A2.841,2.841,0,0,0,.788.11Z" transform="translate(0)"/><path class="cls-1" d="M1.138,2.9c.08-.09.05-.09.06-.09Z" transform="translate(0)"/><path class="cls-1" d="M.978.34.878.4C.928.4.958.34.978.34Z" transform="translate(0)"/><polygon class="cls-1" points="8.248 12.108 8.298 12.038 8.248 12.038 8.248 12.108"/><path class="cls-1" d="M1.9,4.952c.05,0-.09-.029,0,0Z" transform="translate(0)"/><path class="cls-1" d="M1.668,4.245c.022-.032.063-.04.095-.06l.005-.01Z" transform="translate(0)"/><path class="cls-1" d="M1.718,5.022a.219.219,0,0,1,.013-.033L1.7,5.022Z" transform="translate(0)"/><path class="cls-1" d="M.978,2.473c0-.07-.13.091,0,0Z" transform="translate(0)"/><path class="cls-1" d="M9.051,12.2a.574.574,0,0,0-.093-.009C9.008,12.189,9.021,12.222,9.051,12.2Z" transform="translate(0)"/><path class="cls-1" d="M1.828,4.952c-.1.15.025.054.154-.032-.033.023-.063.039-.084.032Z" transform="translate(0)"/><path class="cls-1" d="M2,4.91l-.015.01Z" transform="translate(0)"/><path class="cls-1" d="M4.608,7.327a.209.209,0,0,1-.066.019A.247.247,0,0,0,4.608,7.327Z" transform="translate(0)"/><path class="cls-1" d="M.828.17s0-.05-.07,0Z" transform="translate(0)"/><path class="cls-1" d="M1.058.51s.14-.18.07-.16l-.07.04C1.188.31.908.59,1.058.51Z" transform="translate(0)"/><path class="cls-1" d="M.278,1.58V1.46c-.08.08-.19.18-.23.17C-.132,1.9.248,1.47.278,1.58Z" transform="translate(0)"/><path class="cls-1" d="M.128,2A.278.278,0,0,0,.3,1.87C.238,1.87.178,1.96.128,2Z" transform="translate(0)"/><path class="cls-1" d="M1.178,3.451c.05.01.08-.06.2-.15Z" transform="translate(0)"/><polygon class="cls-1" points="1.278 4.056 1.388 4.036 1.318 4.036 1.278 4.056"/><path class="cls-1" d="M3.278,6.33l.24-.21C3.458,6.14,3.178,6.36,3.278,6.33Z" transform="translate(0)"/><path class="cls-1" d="M4.358,7.116c-.11.12-.16.21,0,.13S4.4,7.106,4.358,7.116Z" transform="translate(0)"/><path class="cls-1" d="M21.96.6c-.05-.06-.2-.2-.19-.15L22,.69Z" transform="translate(0)"/><path class="cls-1" d="M21.74.54c-.05-.07.08,0-.06-.13s-.24-.14-.12,0C21.574.377,21.666.42,21.74.54Z" transform="translate(0)"/><polygon class="cls-1" points="21.56 0.41 21.56 0.41 21.56 0.41 21.56 0.41"/><path class="cls-1" d="M21.56.41A1.014,1.014,0,0,1,21.41.3a3.224,3.224,0,0,0,.5.55C21.7.6,21.8.69,21.55.41Z" transform="translate(0)"/><path class="cls-1" d="M21.71,1.07,21.63.98C21.63,1.03,21.71,1.06,21.71,1.07Z" transform="translate(0)"/><path class="cls-1" d="M18.273,5.794a.068.068,0,0,0,.007-.027l-.1.06A.069.069,0,0,0,18.273,5.794Z" transform="translate(0)"/><polygon class="cls-1" points="17.91 5.878 18.08 5.968 17.96 5.878 17.91 5.878"/><path class="cls-1" d="M21.47.565s.17.151.2.191c.018.024-.026.017-.079-.009a1.431,1.431,0,0,1,.179.218.654.654,0,0,0-.21-.4Z" transform="translate(0)"/><path class="cls-1" d="M21.564.734l.027.013C21.569.724,21.554.7,21.53.673A.492.492,0,0,0,21.564.734Z" transform="translate(0)"/><path class="cls-1" d="M21.49.6c-.352-.3-.144-.019-.091.116,0-.008,0-.011.041.005l.139.156h0l.121.136a.835.835,0,0,0-.136-.281A.3.3,0,0,1,21.49.675Z" transform="translate(0)"/><path class="cls-1" d="M21.4.724l0-.006Z" transform="translate(0)"/><path class="cls-1" d="M21.409.732a1.671,1.671,0,0,0,.17.147h0A1.254,1.254,0,0,1,21.409.732Z" transform="translate(0)"/><path class="cls-1" d="M21.388.77,21.4.783c.017,0,.012-.027,0-.057C21.392.716,21.38.709,21.37.7A.148.148,0,0,1,21.388.77Z" transform="translate(0)"/><polygon class="cls-1" points="21.402 0.726 21.409 0.732 21.401 0.724 21.402 0.726"/><path class="cls-1" d="M21.28.723a1.339,1.339,0,0,1-.29-.292c-.18-.111.08.131-.11,0a.121.121,0,0,1-.05-.05L20.89.5c-.06-.07-.22-.2-.16-.181-.116-.056-.079.024-.046.093l0,0c-.14-.13-.24-.14-.12,0,.011-.026.068.007.13.077a.324.324,0,0,1-.07-.045.188.188,0,0,0,.023.075c-.026-.03-.049-.058-.093-.107h.01A1.014,1.014,0,0,1,20.41.3a3.224,3.224,0,0,0,.5.55c-.071-.084-.1-.127-.129-.161a1.378,1.378,0,0,1,.249.287L20.858.82c0-.011,0-.009-.008-.03V.813L20.46.461l.1.1H20.47s.17.151.2.191c.018.024-.026.017-.079-.009.018.019.033.041.05.061a.229.229,0,0,0-.018.029c-.024-.038-.04-.07-.059-.1A.3.3,0,0,1,20.49.675V.6L20.475.59h.015C20.4.53,20.28.44,20.28.4c-.194-.1-.054-.01.04.079-.074-.028.04.141.079.239,0-.008,0-.011.041.005l.082.093c-.03-.021-.068-.05-.123-.1h0L20.39.712,20.4.718l0,.006v0a.656.656,0,0,0,.066.061c-.019-.017-.039-.032-.057-.05a1.671,1.671,0,0,0,.17.147h0A1.066,1.066,0,0,1,20.49.8c.019.014.035.023.048.031l.041.046h0l.026.03a.408.408,0,0,1,.025.045c-.39-.352,0,.111-.19,0a.227.227,0,0,1-.131-.161c.056.017.082.008.079-.023l-.3-.339.19.292a1.339,1.339,0,0,1-.29-.292c-.18-.111.08.131-.11,0a.121.121,0,0,1-.05-.05L19.89.5c-.06-.07-.22-.2-.16-.181-.23-.111.14.312-.11.121,0,.181.21.221.41.534L19.46.461l.21.221s-.05,0-.13-.091c.12.181.1.091.22.242-.24-.151,0,.2-.37-.121.16.171.17.081.24.242-.39-.352,0,.111-.19,0S19.39.79,19.19.662c.31.342-.14,0-.11.1A.5.5,0,0,1,19.2.91c-.08-.09-.27-.29-.27-.29l.15.17a.972.972,0,0,0,.12.12c.028.07-.061.062-.04.152-.08-.081-.23,0-.37-.081h-.05c.26.262.16.262.18.352a1.729,1.729,0,0,1-.26-.3.482.482,0,0,1,.13.191l-.19-.191c0,.05.14.312,0,.242a4.323,4.323,0,0,1,.616.6H19.21a2.195,2.195,0,0,1-.29-.28s.07.091,0,.06l-.15-.181c-.1,0,.13.151.09.151s-.12-.081-.23-.191a.628.628,0,0,1-.35-.172c.09.07.2.181.2.211s-.19-.141-.29-.191a2.562,2.562,0,0,1,.17.242L18.18,1.4c.075.113-.04.143.149.3H18.25c.061.068.076.033.092.012.008.007.009.01.018.017.14.282-.27.05-.25.211l-.07-.07a.585.585,0,0,0,.08.332.642.642,0,0,1-.25-.181c0,.091.1.171-.06.111s-.13-.091-.06-.131c-.11,0-.23-.1-.08.131-.17-.191-.27-.181-.23-.111l.16.091a.062.062,0,0,1-.066.06h0L17.3,1.94c-.39-.181.35.634-.21.252.15.181.16.06.34.262-.07,0-.46-.262-.48-.252-.19-.06.31.393.16.362a1.448,1.448,0,0,1,.38.4,1.334,1.334,0,0,1-.182-.116c-.011-.016-.029-.033-.028-.046-.012,0-.026,0-.039,0a1.335,1.335,0,0,1-.211-.214c-.04-.091,0,0,.06,0-.014-.036-.051-.055-.077-.083-.1-.053-.146,0-.273-.128a.3.3,0,0,0,.2.161c-.18-.06-.09.081-.23.06.06,0,.17.121.16.131-.18,0,.14.191.12.282-.16-.091-.31-.3-.25-.141a1,1,0,0,1-.3-.282c.13.2-.2,0-.25,0L16.14,2.5V2.59l.19.141a.181.181,0,0,1-.05-.02,5.856,5.856,0,0,1,.43.433c-.11-.06,0,.151-.2-.05.14,0-.24-.2-.23-.292a.167.167,0,0,1-.11.01c-.27-.121.24.272.18.332-.13-.131-.27-.211-.25-.171a3.815,3.815,0,0,1,.31.3c-.14,0,0,.111,0,.131h.07c.106.107.1.134.105.172a.161.161,0,0,0-.1-.093c.2.252-.31-.131-.2,0-.11,0-.25-.221-.33-.252.13.2-.23-.1-.14.081a.812.812,0,0,1,.29.292V3.4l.17.312s-.07-.161,0-.151a.664.664,0,0,0,.24.225c-.3-.2.09.211-.13.1L15.95,3.5c-.26-.111.12.312-.06.3h.1c.16.171,0,.081,0,.171a1.07,1.07,0,0,0-.32-.161c.12.091-.06,0,.23.322l-.23-.139c-.14,0,.35.453.25.473-.15-.161-.28-.221-.36-.362,0,0-.06,0,0,.1-.1-.06.15.242,0,.141.06.06.21.2.17.221l-.07-.07a.922.922,0,0,0,.25.252c-.52-.332-.13.221-.58-.07a.629.629,0,0,1,0,.252l-.05-.107c-.19-.06.4.413.19.342s-.1-.141-.21-.2c-.5-.413,0,.141-.34-.06-.2-.1.11.252,0,.282l-.07-.06a1,1,0,0,1,.26.513,1.264,1.264,0,0,0-.1-.092c.071.069.138.142.142.182a2.117,2.117,0,0,1-.45-.292c-.3-.211-.05.07-.12,0l-.11-.1a.653.653,0,0,0,.124.225c-.078-.043-.116-.042-.041.056.049.064.086.072.109.06.015.036.019.066,0,.082l.09.07a.45.45,0,0,1,.083.1v.006c-.019.008-.222-.157-.084.012l-.31-.242a2.259,2.259,0,0,1,.194.391h-.009a3.442,3.442,0,0,1-.345-.494.588.588,0,0,0,.054.176c.005,0,.01-.009.026,0a.93.93,0,0,1,.221.342.118.118,0,0,0-.055.04c-.481-.4-.228.037-.7-.261.13.282-.26.121-.32.272l.128.085c-.008,0-.016-.011-.024-.013a.553.553,0,0,1,.141.1c0,.011-.033.02.215.248l-.35-.141c-.15-.1-.08-.121-.19-.2a1.469,1.469,0,0,0-.38-.2c.18.131.23.221.14.2l.25.131c.19.292-.45-.252-.27,0l-.13-.141c0,.111-.13.151.21.513a1.061,1.061,0,0,1-.22-.181c-.14.06.22.564-.08.453l-.11-.1s.19.211.06.141-.11-.1-.13-.1.17.221.08.191l-.12-.131c-.23,0,.2.413.21.564a1.058,1.058,0,0,0-.66-.235c-.13.091.13.433.18.654-.43-.232-.34.111-.64.06a.932.932,0,0,1,.29.262c-.09,0,.18.262-.13,0-.33-.232-.29-.111-.33-.07l.41.332c-.69-.362,0,.463-.58.1.08.1.05.141.14.242l-.23-.171c-.11,0-.17,0-.18.181L11.06,8.8c0,.05.6.574.58.624l-.36-.281c-.06.091-.43,0-.19.282a.692.692,0,0,1-.15-.141s-.35,0,.13.332c-.3-.232-.1.07,0,.221l-.22-.181c.25.262.33.322.37.433s-.19-.121-.12-.1c-.15,0,.18.2,0,.161l-.12-.121c-.06,0,0,.081.17.232s-.12,0-.33-.091c.12.091.27.242.19.232a.6.6,0,0,1-.14-.131c-.061,0-.07.027-.062.062-.083-.073-.046-.248,0-.426l-.25.171a.5.5,0,0,1,.13-.141c0-.1-.108.087-.2.167l-.021-.015a.916.916,0,0,1,.164-.152,1.186,1.186,0,0,1-.259.085c-.048-.038-.1-.065-.149-.106l.094.115c-.111.009-.175-.032-.086-.194h.08c0-.141-.49.352-.34.121,0-.2-.33-.141-.09-.544-.32.282,0-.242-.4.161.15-.272.25-.322.3-.554a2.21,2.21,0,0,1-.37.232l.21-.3-.27.181.21-.282h-.08a1.085,1.085,0,0,1-.15.181c-.07.06.06-.262.17-.362l-.28.07a.986.986,0,0,1,.21-.146c-.29.161.23-.232,0-.081l-.19.161c.12-.151.06-.211,0-.2l.17-.141c0-.111-.23-.1-.31-.191a1.047,1.047,0,0,1-.48.376l.23-.232c-.16.121-.06.111-.28.242a3.05,3.05,0,0,1,.35-.322H8.8l.21-.171c-.16.121.18-.292-.1-.081l.07-.06c-.04-.05-.16-.05-.24-.05-.21.191-.19.121-.38.252,0-.111.13-.322.06-.372s-.19.151-.33.242c.18-.181.11-.232.28-.322a.7.7,0,0,0-.37,0,1.531,1.531,0,0,1-.17.181.252.252,0,0,1,.14-.2c-.39.151.33-.755-.15-.483l-.2.01c0-.07.16-.1.25-.242-.4.181-.09-.2-.37-.091.51-.564-.24-.191.05-.594l-.13.119c-.15.091.05-.091.07-.131s-.1.121-.18.171c-.33,0-.14-.554-.18-.856,0-.1-.74.564-.49.191l.27-.181c-.42.111-.23-.3-.61-.232.07,0,.14-.1.16-.091.15-.181-.09-.111-.24,0,0,0,.13-.121.2-.2.025-.028-.01-.017-.053,0a.056.056,0,0,1,.013,0c-.011.006-.016,0-.024,0-.076.031-.169.075-.066,0H6.3c-.028-.017-.056-.031-.17.091,0-.141-.18,0-.09-.171-.26.171,0-.191-.31.081.35-.282.21-.322,0-.221.11-.081.08-.121.24-.232a.563.563,0,0,0-.31.141c.36-.413-.45.141,0-.342a1.786,1.786,0,0,1-.66,0c.35-.282.13.081.49-.221-.22,0-.57.211-.56,0s.16-.111.23-.151c-.23,0-.12-.211-.38-.141a.248.248,0,0,1,.11-.06s0-.081-.14,0a4.044,4.044,0,0,1-.66.423c.48-.342.05-.181.66-.6-.007.006-.012.014-.019.02.03-.021.057-.04.1-.066-.14,0-.29.161-.33.111-.019-.024.008-.043.05-.065-.1.049-.173.071-.16,0,0-.019.016-.018.024-.03-.146.044-.4.09-.344-.04.36-.242.09-.121.37-.352h-.12l-.13.131s-.27.091-.2,0l.14-.06h-.11l-.08.141c-.174.068-.353.271-.329.176a.6.6,0,0,0,.1-.057l-.1.056v0c.04-.121,0,0,.13-.2-.11,0-.23.111-.18,0s.33-.252.39-.3c-.26.171-.15-.05-.43.131a2.015,2.015,0,0,0,.25-.191l-.21.141a.619.619,0,0,1,.2-.191c0-.048-.1.04-.178.107-.022-.1-.219,0-.172-.167.28-.252.12,0,.35-.221-.024,0-.061,0-.1.009l.067-.081L3.6,2.7c-.159.018-.355.035-.355-.074-.43.322.16-.221-.08-.121a1.093,1.093,0,0,0,.2-.131c0-.111-.2-.05-.41,0l.12-.07c.07-.111,0-.141,0-.221a.989.989,0,0,0-.27.171c.53-.594-.51,0-.07-.483,0,0,.11,0,.11-.05l-.23-.138a1.743,1.743,0,0,0-.2.221c-.12.081-.23.111-.24.091a1.084,1.084,0,0,0,.38-.322l-.18.131c.29-.3-.37.272-.2,0l.1-.07c-.07,0-.22.091-.21,0,.2-.171.12,0,.3-.181,0,0-.47.232-.28,0h.16c.23-.232.16-.181.18-.242l.07-.151-.06.07c-.59.372-.17,0-.58.191.39-.2.2-.141.45-.322A.669.669,0,0,1,2.488.8c-.21.111.12-.171-.2,0a2.062,2.062,0,0,0,.19-.172c-.09,0-.13.111-.23.181-.31.141.22-.393-.21-.2a1.019,1.019,0,0,0-.4.141C1.678.676,1.609.667,1.548.69L1.8.481c-.05,0-.3.191-.22.07s.24-.161.34-.211a2.951,2.951,0,0,0-.352.1A.468.468,0,0,1,1.5.49h-.06c-.45.372.14.05.15.121L1.3.792a1.921,1.921,0,0,0,.177-.16c-.09,0-.13.111-.23.181-.31.141.22-.393-.21-.2A.981.981,0,0,0,.647.749C.732.634.7.622.618.649L.8.481C.748.461.5.673.618.552A.974.974,0,0,1,.918.34c-.1.02-.3.1-.37.111A1.22,1.22,0,0,1,.878.27a.65.65,0,0,0-.43.141L.388.49A1.728,1.728,0,0,0,.618.32.229.229,0,0,1,.5.49H.438c-.45.372.14.05.15.121L.238.832.558.69a.993.993,0,0,1-.33.232c-.14.161.14,0,0,.111a.128.128,0,0,1-.06.05H.3c-.08,0-.23.181-.2.121-.15.211.33-.081.09.131.17,0,.25-.171.58-.322L.2,1.506l.25-.171s0,.05-.1.121c.19-.091.1-.091.27-.191-.19.211.2.05-.19.352.2-.131.12-.151.28-.2-.41.322.11,0-.05.181s-.18,0-.34.2c.305-.2.123.008.074.09l0,0-.15.12.144-.1s0,.01.006.008c.29-.221.18,0,.32,0-.1.07-.08.221-.15.352.3-.211.29-.121.38-.121a1.483,1.483,0,0,1-.35.211A.466.466,0,0,1,.8,2.27l-.22.151c.05.05.33-.091.23.081.21-.151.53-.483.72-.523a2.018,2.018,0,0,1-.35.252h.06l-.2.121c-.06.091.17-.111.17-.07-.16.121-.1.1-.23.191a.646.646,0,0,1-.19.252.892.892,0,0,1,.25-.161c.05,0-.18.171-.24.262.12-.081,0,0,.27-.141l-.16.161c.13,0,.12.1.35-.121.29-.091,0,.282.16.282l-.08.06c.13,0,.14.07.33,0a.767.767,0,0,1-.21.211c.09,0,.18-.081.09.081s-.11.111-.13,0c0,.1-.14.211.11.091-.21.141-.22.242-.14.211L1.5,3.52v.07l-.23.221c-.24.352.68-.252.21.242.2-.111.09-.151.32-.3,0,.081-.34.423-.33.443-.09.171.43-.252.38-.1a1.282,1.282,0,0,1,.448-.3l-.028.022a.188.188,0,0,0-.032.071,1.647,1.647,0,0,1-.378.3c-.1.038,0,0,0-.06-.039.006-.063.04-.1.061-.067.093,0,.145-.185.252a.291.291,0,0,0,.2-.171c-.09.171.07.1,0,.232l.15-.141c0,.181.21-.1.3-.07-.11.141-.35.262-.18.221a.843.843,0,0,1-.33.252c.2-.082.047.137.013.229L1.9,4.822a.17.17,0,0,1-.08.121,6.044,6.044,0,0,1,.49-.362c-.08.1.16,0-.08.2,0-.1-.127.05-.231.129.082-.054.162-.1.181-.069-.14.1-.25.232-.21.211a2.874,2.874,0,0,1,.35-.262c-.07.141.12,0,.12,0V4.72c.18.1.18.1.28.1-.1.081-.1,0-.1.07.27-.161-.19.282,0,.191-.08.1-.26.221-.31.292.22-.091-.14.211.05.151a.892.892,0,0,1,.332-.237L2.5,5.443c-.15.232.33-.07.29.111v-.09c.19-.141.07,0,.17,0a1.8,1.8,0,0,0-.28.272c.11-.091,0,.07.35-.171l-.09.262c0,.131.5-.282.51-.171a2.648,2.648,0,0,1-.42.292s0,.06.11,0c-.09.091.25-.111.13,0,.07,0,.23-.171.24-.141l-.07.02c.07-.06.13,0,.28-.2-.42.463.2.161-.16.564a.527.527,0,0,1,.24.06s-.08.06-.07,0c-.09.181.47-.332.37-.131s-.17.081-.24.181c-.49.433.14,0-.11.322-.14.181.26-.07.27,0l-.07.06a.926.926,0,0,1,.55-.171,1.2,1.2,0,0,0-.35.322s.31-.282.41-.282a4.276,4.276,0,0,1-.36.413h-.06c-.25.252.07,0,0,.121l-.12.1c.1,0,.4-.221.44-.121l.16-.141c.33-.211-.14.181.12,0l-.29.272a2.575,2.575,0,0,1,.47-.151,3.181,3.181,0,0,1-.57.282.232.232,0,0,0,.194.019c-.015,0-.035.006-.024-.019.27-.171.42-.232.46-.171-.58.493,0,.272-.43.7.29-.091.07.272.21.362l.048-.052a.473.473,0,0,0-.092.116c.16-.2.29-.16.46-.39-.06.052-.242.155-.364.27.308-.332-.025.035.438-.337l-.21.322c-.11.141-.12.07-.22.161a1.6,1.6,0,0,0-.26.342c.15-.151.25-.191.22-.1l.17-.232c.31-.131-.33.413,0,.282l-.17.1c.12,0,.13.161.54-.131-.05.05-.17.181-.22.191s.59-.131.43.151L5.418,9s.23-.161.14,0l-.12.1c.05,0,.24-.121.2,0l-.14.091c-.06.232.43-.121.58-.111a1.011,1.011,0,0,0-.38.554l-.08.026c.06.151.44-.06.66-.07-.29.393.06.352,0,.634a1.088,1.088,0,0,1,.31-.242c-.05.091.28-.141,0,.131-.2.205-.189.25-.155.278l-.073.044.089-.027a.063.063,0,0,1,.019.017l.39-.352c-.47.624.45.07,0,.594.12-.07.14,0,.26-.1l-.21.191c0,.121,0,.171.15.211l-.17.121c0,.06.65-.5.7-.473l-.29.312c.08.07-.11.413.24.232,0,0-.13.121-.16.121s-.07.342.34-.07c-.27.262,0,.111.22,0l-.21.191c.29-.211.36-.282.48-.292s-.15.161-.11.1c-.07.141.22-.161.16,0l-.15.1c0,.057.087,0,.243-.119a.109.109,0,0,0,.069,0,2.037,2.037,0,0,1-.2.3,1.558,1.558,0,0,1,.148-.12.055.055,0,0,0,.049.04c-.033.023-.066.038-.077.05-.07.2.33-.131.18.111-.07.07-.1.1-.11.131s-.08-.121-.07-.131a2.513,2.513,0,0,1-.46.473c.18-.1.54-.332.49-.211l-.06.07h.06c.06,0,0,.081,0,.091-.15.161,0,.131,0,.161.2-.191.19-.131.33-.322h-.12c.12-.081.23-.141.14,0l.35-.292c-.25.312-.34.513-.51.7A.789.789,0,0,0,9.208,12c.07,0-.09.121-.14.191-.008.012-.011,0-.017.009.06.008.123-.009.282-.151a.1.1,0,0,0-.025.06c-.08.091-.178.129-.1.153l-.08.07c-.159.3.114.134.333.034.036.042.1.1.159.159l0,.011L9.4,12.392l.25.262c.15.232-.7-.292-.38.091l.18.1c-.039,0-.032.071-.067.073L9.44,13c-.14,0-.51-.362-.61-.282a1.61,1.61,0,0,0,.41.413.431.431,0,0,1,.24.111v.081A4.889,4.889,0,0,0,10.56,14l-.109-.12c.015-.008.025-.021.04-.028l.069.038v.05c.19.1,0,0,0-.121a.843.843,0,0,0,.22.121l-.177-.168.023-.016a.582.582,0,0,0,.214.124,1.323,1.323,0,0,0-.193-.139c.021-.015.042-.028.062-.044a.64.64,0,0,1,.091.072.247.247,0,0,1-.052-.1c.033-.028.076-.044.106-.075a4.886,4.886,0,0,0,.706.4l-.109-.12c.015-.008.025-.021.04-.028l.069.038v.05c.19.1,0,0,0-.121a.843.843,0,0,0,.22.121l-.177-.168.023-.016a.582.582,0,0,0,.214.124,1.323,1.323,0,0,0-.193-.139c.021-.015.042-.028.062-.044a.64.64,0,0,1,.091.072.247.247,0,0,1-.052-.1,1.517,1.517,0,0,0,.13-.092c0-.006.008-.01.011-.016.028.017.059.037.1.066a.922.922,0,0,1-.081-.095.461.461,0,0,1,.036-.054c.076.016.022-.122.345.119-.153-.129-.193-.194-.2-.241h.02c.038-.034.071-.073.108-.108.054.016.111.034.144.047-.035-.028-.062-.065-.1-.1l.058-.058c.058.046.121.085.178.133a.916.916,0,0,1-.167-.144l.073-.074c.018.011.037.018.054.029l-.047-.035c.026-.028.056-.054.082-.082,0,0,.005,0,.005-.005l.01-.011a.727.727,0,0,1,.2.183v0c.03,0-.073-.086-.2-.183.014-.015.03-.028.043-.043.045.024.09.05.123.065a.791.791,0,0,0-.087-.111c.073-.086.139-.178.207-.268h0c.049,0,.05-.024.041-.054.035-.047.074-.09.107-.138l-.125.075c-.014-.039-.021-.075.037-.083-.009-.009-.015-.011-.024-.019l0,0c.1-.137.04-.087-.051-.036l-.027-.021a1.015,1.015,0,0,0,.08-.106c.13.074.217.114.09-.026-.17-.161-.51-.423-.28-.342l.29.252c.09,0-.41-.372-.15-.292.11.1.06.131.11.141.28.131-.15-.161-.13-.2l.28.2c0-.111-.12-.342-.1-.473a.79.79,0,0,0,.25.191c-.06-.211.2-.211.44-.191l-.21-.221a.738.738,0,0,1,.16.111c.12,0-.15-.111-.22-.2s.15.07.21.141c-.14-.221-.27-.534,0-.413l.06.06c.14,0-.43-.423-.17-.312.2,0,.09-.352.52-.181-.32-.282.24,0-.22-.383a1.992,1.992,0,0,0,.59.211,1.8,1.8,0,0,1-.28-.342l.24.191-.22-.242.31.2v-.081a.851.851,0,0,1-.2-.111c-.07-.141.26,0,.39.1l-.12-.272a.689.689,0,0,1,.17.191c-.2-.262.26.191.08-.05a1.384,1.384,0,0,1-.19-.151c.17.081.22,0,.2-.081l.16.141c.11,0,.06-.242.13-.332a1.159,1.159,0,0,1-.39-.312l.27.191c-.15-.151-.12-.05-.29-.242a1.318,1.318,0,0,1,.38.292l-.06-.111.21.181c-.15-.151.31.131.06-.121l.08.06c.07-.091,0-.211.07-.292-.22-.181-.15-.171-.31-.342.12,0,.34.081.38,0s-.18-.171-.29-.292c.2.151.24.07.35.221V8.3a.76.76,0,0,1-.2-.131.3.3,0,0,1,.21.1c-.21-.362.79.211.46-.221l-.07-.211c.07,0,.13.151.28.211-.25-.372.18-.121,0-.383.64.413.15-.272.6,0l-.15-.111c-.11-.131.11,0,.15,0s-.14-.081-.21-.161c0-.322.54-.232.82-.322.1,0-.67-.634-.27-.453l.23.242c-.18-.4.26-.282.13-.644.05.05.13.121.11.131.21.131.11-.1,0-.232,0,0,.14.111.22.161s-.17-.272,0-.131a.217.217,0,0,1,.06.081c-.07-.1.1-.081-.13-.242.15,0,0-.181.16-.111-.21-.232.19,0-.14-.292.34.3.36.141.23,0,.09.1.13.07.26.2a.388.388,0,0,0-.18-.272c.47.282-.21-.433.35,0a1.861,1.861,0,0,1-.13-.692c.33.3-.06.141.29.453,0-.221-.29-.534-.13-.554s.14.141.19.2c-.06-.221.19-.161.08-.4a.332.332,0,0,1,.08.091s.08,0-.07-.121a3.137,3.137,0,0,1-.38-.479V3.992c.319.31.15-.025.63.5a.65.65,0,0,0-.18-.2.533.533,0,0,1,.21.181c0-.131-.21-.262-.16-.312.023-.023.045,0,.07.036-.063-.093-.1-.164-.03-.157.023,0,.027.016.04.024-.064-.136-.151-.385,0-.356.3.312.14.06.42.312V3.89l-.2-.081s-.13-.252,0-.2l.09.131V3.59h-.14c-.11-.181-.36-.322-.23-.3s0,0,.22.091c-.07-.1-.14-.211,0-.171s.3.282.36.332c-.21-.232,0-.151-.2-.4a1.994,1.994,0,0,0,.22.211l-.18-.234a.627.627,0,0,1,.22.161c.09,0-.36-.3-.15-.232l.06.081c.14,0,0-.242.15-.211.29.232,0,.111.27.312,0-.141-.17-.493,0-.523h-.05c-.38-.372.25.121.11-.1,0,0,.2.221.16.171.12,0,0-.2,0-.413l.09.111c.12,0,.13-.05.21,0-.09-.1-.05-.111-.21-.232.68.413-.1-.513.47-.161,0,0,.06.111.07.1V1.961a1.1,1.1,0,0,0-.34-.161,1.128,1.128,0,0,1-.106-.15c.008.007.018.011.026.018-.054-.072-.041-.076-.017-.071a1.17,1.17,0,0,0,.347.3l-.15-.151c.34.232-.34-.332-.08-.2l.09.081a.116.116,0,0,0-.01-.032l.03.021c0-.03-.028-.046-.05-.065-.032-.057-.073-.115-.04-.115.2.171.07.111.22.262,0-.05-.3-.423-.08-.272a.946.946,0,0,1,.06.161c.27.181.21.121.27.131h.16l-.07-.05c-.419-.466-.094-.24-.224-.456l0-.007c.161.212.128.117.321.309a.77.77,0,0,1,.22.151c-.15-.2.18.091,0-.2.07.07,0,0,.21.151,0-.091-.13-.111-.22-.191-.19-.292.42.151.16-.252-.07-.2-.29-.443-.35-.614a.934.934,0,0,1,.22.228c.092.039.111.018.108-.02l-.3-.339Zm-1,.067c.006,0,0,0,.01,0,.022.047-.046.014-.113-.017A1.1,1.1,0,0,1,20.06.562.934.934,0,0,1,20.28.79ZM18.49,2.964h0ZM19.34,1.8c-.019-.024-.029-.042-.045-.063.025.009.036-.01.047-.025.008.007.009.01.018.017a.109.109,0,0,1,.011.086C19.36,1.811,19.351,1.8,19.34,1.8Zm.121-.349c0,.007.019.022.019.026l-.009,0A.146.146,0,0,1,19.461,1.451Zm-.237.129a.359.359,0,0,0,.105.12h-.06c-.043-.064-.072-.118-.059-.132C19.214,1.573,19.22,1.575,19.224,1.58ZM12.561,12.4l-.053.04c.015-.017.03-.029.045-.046Zm-.951,1.1a.422.422,0,0,0,.066.028l-.016.018C11.643,13.539,11.634,13.527,11.61,13.508Zm-1,0a.422.422,0,0,0,.066.028l-.016.018C10.643,13.539,10.634,13.527,10.61,13.508ZM1.8,1.93c-.013.009-.013.028-.022.04-.108.011-.191.007-.1-.125C1.715,1.867,1.72,1.93,1.8,1.93Zm.387.39c.033-.022.063-.039.063-.025l-.022.017Zm.523.76c-.016.024-.042.039-.06.061a.44.44,0,0,0-.13.063c.052-.034.1-.075.148-.113C2.681,3.087,2.69,3.086,2.708,3.08Zm-.151.339c-.011,0-.014-.013,0-.046A.291.291,0,0,1,2.621,3.3a.3.3,0,0,1-.033.074A.55.55,0,0,1,2.557,3.419Zm0-.265c.013-.02.035-.03.05-.048A.258.258,0,0,0,2.643,3.1Zm-.144-.183c0,.012.013.016.02.023A.046.046,0,0,1,2.414,2.971Zm0-.034c0-.013-.008-.016,0-.034l.01-.008A.367.367,0,0,0,2.411,2.937Zm-.6-.687a1.053,1.053,0,0,0,.08-.1c.023,0,.045.007.067.012A.983.983,0,0,0,1.808,2.25Zm.3.448-.017.017,0-.01Zm.426.409c-.028.021-.036.017-.029-.005ZM2.878,4.93l-.01.013h0l-.009.012H2.844C2.854,4.945,2.869,4.941,2.878,4.93Zm7.547,5.706c-.038.045-.109.091-.117.083a.894.894,0,0,0,.091-.1Zm1.348,2.728.008.007-.005.008-.01-.012Zm.734-1,.023.015a.544.544,0,0,1-.078.069l0,0C12.468,12.42,12.488,12.393,12.507,12.369Zm.108-.168a.735.735,0,0,1,.085-.072l.058.033c-.029.028-.057.056-.084.085C12.656,12.235,12.634,12.215,12.615,12.2Zm-.2.062c.009-.011.005-.011.011-.02l.011,0C12.432,12.254,12.428,12.255,12.418,12.263Zm-.14-.142.03-.027.005.005C12.3,12.105,12.291,12.115,12.278,12.121Zm-1.47-1.646c.016-.015.032-.03.047-.046C10.88,10.475,10.886,10.5,10.808,10.475Zm-7.3-7.391h.055C3.5,3.133,3.462,3.164,3.508,3.084Zm-.94-1.092a2.018,2.018,0,0,1-.35.252h.06l-.139.084-.082.018A1.657,1.657,0,0,1,2.568,1.992Zm-1.12-.657s0,.049-.1.119a.748.748,0,0,0-.072.027V1.46c-.013.013-.028.025-.042.038-.126.053-.277.108-.148-.049h.16c.2-.2.176-.193.177-.224a1.751,1.751,0,0,1,.343-.212l-.57.493Zm-.274.22a.61.61,0,0,1-.053.038C1.138,1.581,1.162,1.561,1.174,1.555ZM1.558.69A1.05,1.05,0,0,1,1.43.78c.007-.016.01-.029,0-.031Zm-.7.627c.3-.155.261-.157.342-.234h.1c-.08,0-.23.181-.2.121-.085.12.032.078.106.058C.987,1.37,1.189,1.163.858,1.317Zm.227.347c.076-.059.178-.139.193-.084V1.526a.523.523,0,0,0,.09-.077l-.015,0c.18-.087.1-.089.265-.188-.19.211.2.05-.19.352.2-.131.12-.151.28-.2-.41.322.11,0,0,.181-.008.013-.013.013-.02.023l-.07-.042a1.646,1.646,0,0,0-.194.215L1.416,1.8c-.119.08-.228.11-.238.09a1.084,1.084,0,0,0,.38-.322l-.18.131c.29-.3-.37.272-.2,0l.1-.07C1.224,1.63,1.123,1.682,1.085,1.664ZM2.7,5.282H2.468l.32-.161s-.17.05-.17,0a.7.7,0,0,0,.2-.146c-.028.046-.028.062-.005.054.009.034.182-.065.175-.012-.021.025-.031.041-.019.037a.181.181,0,0,1-.01.017Zm6.952,7.024h0Zm-.031.229,0-.008c.013.012.025.023.037.036Zm.808,1.317-.066-.072.075.042A.093.093,0,0,0,10.426,13.852Zm.1-.151-.076-.072c.032.02.056.041.085.062Zm-.116-.152c.068.036.124.068.169.093-.01.01-.016.018-.025.028A.519.519,0,0,1,10.41,13.549Zm1.016.3-.066-.072.075.042A.093.093,0,0,0,11.426,13.852Zm.1-.151-.076-.072c.032.02.056.041.085.062Zm-.116-.152c.068.036.124.068.169.093-.01.01-.016.018-.025.028A.519.519,0,0,1,11.41,13.549Zm1.288-1,.013-.017.007.005Zm.022-.269-.03-.024a.725.725,0,0,0,.076-.093l.062.035Zm-.023-.156a.31.31,0,0,1-.118.044.893.893,0,0,1-.089-.07.078.078,0,0,1-.012-.033c0-.007.02-.024.027-.033A.976.976,0,0,1,12.7,12.128Zm.143-.977a.472.472,0,0,0,.15.131C12.91,11.232,12.83,11.161,12.84,11.151ZM19.92,1.6s.042.061.006.056a1.106,1.106,0,0,1-.2-.264,2.257,2.257,0,0,1,.5.508A2.254,2.254,0,0,1,19.92,1.6Zm.8-.785C20.717.8,20.716.789,20.711.778a.661.661,0,0,1,.049.055A.334.334,0,0,0,20.722.814ZM20.67.682,20.644.674a.6.6,0,0,0-.079-.1Zm.006.473c-.01-.014-.014-.022-.026-.038l.025.033Z" transform="translate(0)"/><path class="cls-1" d="M18.937,4.235a.585.585,0,0,0,.083.113C18.991,4.31,18.963,4.271,18.937,4.235Z" transform="translate(0)"/><path class="cls-1" d="M18.91,4.193c.009.015.017.027.027.042C18.928,4.22,18.918,4.206,18.91,4.193Z" transform="translate(0)"/><path class="cls-1" d="M18.92,4.06c.025.054.047.093.05.087S18.965,4.088,18.92,4.06Z" transform="translate(0)"/><polygon class="cls-1" points="14.584 10.195 14.594 10.195 14.544 10.145 14.584 10.195"/><path class="cls-1" d="M19.08,3.332l.08.11S19.2,3.442,19.08,3.332Z" transform="translate(0)"/><polygon class="cls-1" points="18.25 5.767 18.26 5.767 18.26 5.757 18.25 5.767"/><path class="cls-1" d="M21.85.86s.05.03,0-.07Z" transform="translate(0)"/><path class="cls-1" d="M21.56,1.18s.19.11.17,0l-.06-.06C21.77,1.28,21.45,1.05,21.56,1.18Z" transform="translate(0)"/><polygon class="cls-1" points="19.6 3.14 19.73 3.23 19.57 3.06 19.6 3.14"/></svg>