<svg xmlns="http://www.w3.org/2000/svg" viewBox="0 0 17 16">
  <defs>
    <style>
      .cls-1 {
        fill: #3bffb4;
      }
    </style>
  </defs>
  <g id="icon_checkmark" transform="translate(-0.001 0.001)">
    <g id="Group_2083" data-name="Group 2083" transform="translate(0.001 -0.001)">
      <g id="Group_2081" data-name="Group 2081" transform="translate(7.101)">
        <path id="Path_1844" data-name="Path 1844" class="cls-1" d="M5.569,15.323l-.039-.014-.039.014c0,.028,0,.042-.013.057l-.039.042-.013.014a.151.151,0,0,1-.117-.042.282.282,0,0,1-.026-.1.383.383,0,0,1,.013-.114.306.306,0,0,0,.013-.1c-.1,0-.17.028-.183.1a.136.136,0,0,1-.143.1c-.065,0-.13-.057-.17-.156-.052.028-.065.071-.065.156v.156H4.63a.878.878,0,0,0-.065-.241.878.878,0,0,1-.065-.241v-.042a2.823,2.823,0,0,0,.443-.568c.143-.241.274-.511.4-.781s.248-.554.365-.824.222-.511.326-.707a.324.324,0,0,0,.17-.156.966.966,0,0,0,.117-.2,2.024,2.024,0,0,1,.13-.227.771.771,0,0,1,.235-.227l.026.156a.94.94,0,0,1,.235-.312.522.522,0,0,0,.2-.312,1.334,1.334,0,0,0,.013-.213v-.156a.243.243,0,0,1,.039-.128.6.6,0,0,1,.157-.156c0,.114.052.171.143.171a.132.132,0,0,0,.065-.014.1.1,0,0,0,.052-.1V9.657a.182.182,0,0,0,.052.042.182.182,0,0,1,.052.042h.065a.245.245,0,0,0,.13-.171V9.529A.776.776,0,0,0,7.889,9.4a.992.992,0,0,0-.039-.1v-.04a1.721,1.721,0,0,1,.17-.468c.117-.255.235-.54.378-.838s.274-.554.391-.8a1.676,1.676,0,0,1,.2-.355.06.06,0,0,1,.065.042c.013.028.013.042.026.071A.181.181,0,0,0,9.171,7a.4.4,0,0,0,.209.042A1.414,1.414,0,0,0,9.367,6.8a1.338,1.338,0,0,1-.013-.255,1.406,1.406,0,0,1,.063-.286c.039-.142.091-.284.143-.44s.117-.3.17-.426a.728.728,0,0,1,.117-.2.239.239,0,0,1,.143.014c.039.028.065-.028.065-.171-.013-.014-.013-.028-.013-.057a.114.114,0,0,1-.013-.071c0-.057.026-.1.091-.1s.091-.028.091-.1a.137.137,0,0,0-.011-.062c0-.014-.013-.028-.013-.042l-.027-.059a.112.112,0,0,1-.026-.057c.013-.085.078-.142.183-.185a.62.62,0,0,1,.222-.071v.156c0,.1.039.142.091.156l.039-.014.039-.042a.434.434,0,0,1,.052-.156c.039-.085.065-.142.091-.156a.318.318,0,0,0,.091-.014c.052-.014.052-.042.065-.057l.013-.014-.013-.042V4.033c-.026,0-.052,0-.065-.014s-.039,0-.052-.014a.115.115,0,0,1-.013-.057V3.919l.013-.014a.35.35,0,0,1,.078-.156c.052-.085.078-.142.091-.156V3.565c0-.014,0-.014.013-.014s.013,0,.013-.014a.146.146,0,0,0-.039-.114.183.183,0,0,1-.039-.128.529.529,0,0,1,.209-.412.974.974,0,0,0,.326-.384.668.668,0,0,0,.091-.37.472.472,0,0,1,.13-.355c0-.014.013,0,.052.042a.046.046,0,0,0,.039.014l.039.014c.039,0,.078-.057.143-.156s.13-.227.2-.355a3.99,3.99,0,0,1,.2-.355c.065-.1.117-.156.157-.156a.2.2,0,0,1,.143.042.178.178,0,0,0,.137.045v-.1a.247.247,0,0,0-.052-.1.3.3,0,0,0-.091-.1.1.1,0,0,0,.085.006.1.1,0,0,0,.058-.062,2.069,2.069,0,0,0,.078-.227,1.292,1.292,0,0,1,.091-.241A.211.211,0,0,1,13.225,0h.065a.781.781,0,0,1,.13.128c.065.071.1.1.117.1h.248c.026.014.052.085.091.213s.091.185.143.185h.039A.046.046,0,0,0,14.1.606c.039-.042.052-.057.052-.042a.481.481,0,0,0,.026.27.181.181,0,0,0,.091.085A.609.609,0,0,1,14.36.96c.026.014.039.071.039.142a.54.54,0,0,1-.065.27,1.125,1.125,0,0,1-.157.2c-.052.057-.091.114-.143.171a.369.369,0,0,0-.065.213c0,.071.013.128.039.142a.21.21,0,0,0,.065.028h.078c.026,0,.052.028.052.071a.238.238,0,0,1-.157.057.793.793,0,0,1-.183-.014h-.17a.2.2,0,0,0-.143.071h.3v.114a1.1,1.1,0,0,0-.209.042.078.078,0,0,0-.052.085.427.427,0,0,0-.013.128,1.529,1.529,0,0,1-.013.213c-.013.042-.039.1-.065.171a1.963,1.963,0,0,1-.117.227,1.871,1.871,0,0,0-.13.213c-.039.057-.065.1-.078.114h-.052a.451.451,0,0,1-.143-.014.451.451,0,0,0-.143-.014h-.052a.448.448,0,0,1-.117.27.323.323,0,0,0-.091.227,1.286,1.286,0,0,0,.013.171.535.535,0,0,1-.013.185,2.193,2.193,0,0,0-.039.3c-.013.142-.039.3-.065.454a1.664,1.664,0,0,1-.117.412c-.052.114-.091.185-.143.185V5.51a.386.386,0,0,0-.091-.284h-.078A.317.317,0,0,0,12,5.3a.306.306,0,0,0-.013.1c-.026.028-.065.085-.143.185a2.091,2.091,0,0,0-.143.2c-.026-.071-.078-.071-.13-.028a.487.487,0,0,0-.13.185,1.176,1.176,0,0,0-.1.227,1.284,1.284,0,0,0-.026.142.136.136,0,0,0,.065.128.136.136,0,0,1,.065.128h-.013c-.052.156-.091.312-.143.5a.3.3,0,0,1-.287.27h-.1a.548.548,0,0,1-.1-.028c-.052-.014-.078-.028-.091-.028-.052,0-.078.042-.091.128a.927.927,0,0,0-.013.156h.1c.052,0,.065.028.065.1v.042a.524.524,0,0,1-.065.028.132.132,0,0,1-.065.014l-.039.042c-.013.014-.013.014-.013.028a.745.745,0,0,0,.143.4.317.317,0,0,0,.3.185.347.347,0,0,0-.209.227.424.424,0,0,1-.183.227.18.18,0,0,1-.091-.142.392.392,0,0,1-.026-.156.2.2,0,0,0-.2.1,1.021,1.021,0,0,0-.091.213,1.741,1.741,0,0,1-.078.213c-.026.071-.065.1-.117.1l-.052-.042A.54.54,0,0,1,10,9.018a.137.137,0,0,0,.013-.071v-.2a.153.153,0,0,0-.143.128.573.573,0,0,0-.026.255.621.621,0,0,0,.091.327.742.742,0,0,1,.091.355v.071C10,9.669,9.935,9.57,9.843,9.57a.389.389,0,0,0-.274.1.3.3,0,0,0-.117.27H9.4a.611.611,0,0,0,.039.241.582.582,0,0,1,.039.227,1.88,1.88,0,0,1-.013.3c-.026.071-.065.156-.117.27a.914.914,0,0,1-.065-.156.761.761,0,0,0-.091-.142.823.823,0,0,1-.091-.2c0-.028-.039-.042-.13-.042v.114a1.308,1.308,0,0,0,.013.185A1.307,1.307,0,0,1,9,10.921c0,.028-.013.028-.039.028a.1.1,0,0,0-.065.028H8.843a1.589,1.589,0,0,0-.013-.241.139.139,0,0,0-.157-.114.753.753,0,0,0,.065.355.522.522,0,0,1,.065.284v.071a1.284,1.284,0,0,1-.026.142,1.284,1.284,0,0,0-.026.142L8.6,11.488a.327.327,0,0,0-.1.171,2.706,2.706,0,0,0-.1.3,2.536,2.536,0,0,1-.117.27c-.039.085-.078.128-.13.128a.414.414,0,0,1-.222-.071,1,1,0,0,1-.183-.156.647.647,0,0,0-.039.27v.255a.634.634,0,0,1-.039.185.143.143,0,0,1-.143.085v.114a.229.229,0,0,0,.025.084.228.228,0,0,1,.039.085c0,.028-.026.057-.065.1a1.086,1.086,0,0,0-.157.114,1.658,1.658,0,0,0-.143.171.331.331,0,0,0-.065.227v.009a.389.389,0,0,0,.039.1L7.239,14v.1A.046.046,0,0,1,7.2,14.09a.124.124,0,0,1-.039-.014c0-.014-.013-.028-.013-.042-.026,0-.026-.014-.026-.014H7.069c-.078,0-.117.042-.1.128a.255.255,0,0,1-.013.156.182.182,0,0,1-.052.042c-.026.014-.039.028-.065.042s-.026.014-.039.014c.026.27-.013.44-.117.483a1.1,1.1,0,0,1-.5.071c.026.085.039.156.052.213a.954.954,0,0,1,.013.213.233.233,0,0,1,.065.2.454.454,0,0,1-.091.2.922.922,0,0,1-.17.156A.3.3,0,0,1,5.909,16H5.9a1.634,1.634,0,0,1-.331-.676ZM5,14.969c-.026,0-.039.028-.039.071s.013.071.039.071c.052,0,.065-.028.065-.071a.065.065,0,0,0-.017-.05A.064.064,0,0,0,5,14.969Zm1.056.3c-.039,0-.065.057-.078.185s-.026.2-.026.241a.2.2,0,0,0,.157-.1.3.3,0,0,0,.065-.213v-.014l-.039-.042c-.013-.014-.026-.028-.039-.028Zm.561-3.593v-.171l-.1.071ZM6.8,13.8a.173.173,0,0,0-.052.142H6.8V13.8Zm.17-2.343h.052v-.147H6.965Zm0,.724a.127.127,0,0,0,.065-.128h-.07Zm.052-1.037h.091v-.057h-.1ZM8.4,9.742a.2.2,0,0,0,.013.085c0,.028.026.057.078.071V9.813a.19.19,0,0,0-.065-.156A.04.04,0,0,0,8.4,9.7Zm.052,1.364a1.154,1.154,0,0,0,.013.156.16.16,0,0,0,.078.156.705.705,0,0,1,.026-.071.311.311,0,0,0,.026-.085v-.042C8.6,11.148,8.543,11.106,8.452,11.106ZM8.66,9.344q.02.085.157.085A.153.153,0,0,0,8.752,9.3ZM9.16,9h.065a.531.531,0,0,0-.013-.128.153.153,0,0,0-.065-.128V9Zm.13.808c.013-.042,0-.057-.039-.057s-.051.016-.051.06c.034.057.06.057.086,0Zm.235-1.051c-.039,0-.052.028-.052.1s.013.1.052.1.052-.028.052-.1-.017-.1-.056-.1ZM9.6,8.62c-.039,0-.052.028-.052.071s.013.071.052.071.039-.028.039-.071S9.613,8.62,9.6,8.62Zm.183-1.505q-.039,0-.039.042t.039.042q.077-.042,0-.085Zm.2-.454V6.576a.046.046,0,0,1-.044-.013.1.1,0,0,0-.052-.028v.042Zm.365-1.136c-.039,0-.052.014-.052.057s.013.057.052.057a.076.076,0,0,0,.026-.057c-.005-.042-.018-.057-.031-.057Zm.039,2.287c-.013-.014-.026.014-.026.085s.013.1.039.085a.087.087,0,0,0,.026-.071.135.135,0,0,0-.044-.1Zm0-2.074h.065V5.624h-.065Zm.248,2.6c.013-.028,0-.042-.013-.042s-.039.028-.039.042.026.042.039.042.008-.014.008-.042Zm.143-3.423c.013-.028.013-.057.026-.085s.026-.042.039-.042a.055.055,0,0,1,.013-.042.055.055,0,0,0,.013-.042h-.091Zm.117-.37.052-.142h-.052Zm.365,1.449q-.039,0-.039.085t.039.085c.039,0,.052-.028.052-.085s-.03-.085-.056-.085Zm.27-1.551c-.117,0-.17.1-.17.3v.1a.207.207,0,0,0,.143-.171,1.779,1.779,0,0,0,.027-.233Zm.013,1.079h.065V5.368h-.065ZM12,3.621h.065L12,3.579Zm.052,1.164c-.013-.014-.013.014-.013.071s0,.085.013.071a.127.127,0,0,0,.039-.085c0-.028-.014-.057-.04-.057Zm.065-2.12h.209c-.026-.057-.065-.071-.143-.071h-.065Zm.117-.606a.279.279,0,0,0-.052.156h.052Zm-.052,2.06.065-.057h-.065Zm.078-1.136a.146.146,0,0,0,.1.071.339.339,0,0,0,.1.014V2.9Zm.17-1.377c-.052,0-.078.028-.091.085s-.026.1-.039.142a.046.046,0,0,1,.039.014c.052,0,.078-.028.078-.1A.639.639,0,0,0,12.43,1.6Zm-.1,2.243a.133.133,0,0,0,.039.071.384.384,0,0,0,.052.071l.1-.057v-.4a.177.177,0,0,0-.143.085.305.305,0,0,0-.052.185Zm.209-2.524a.751.751,0,0,0,.052.241q.059.171.2.171a1.352,1.352,0,0,0-.039-.284.263.263,0,0,0-.2-.213v.085Zm.339.014a.389.389,0,0,0,.039.1.115.115,0,0,1,.013.057h.013a.088.088,0,0,0,.091-.071.751.751,0,0,0,.013-.171h-.17Zm.1-.355c-.026,0-.039.028-.039.071s.013.071.039.071.039-.028.039-.071S13,.98,12.977.98ZM13.03.625c0,.014.013.042.026.1s.026.085.026.1,0,.014.013.014h.039a.286.286,0,0,0,.209-.114.422.422,0,0,0,.091-.241A.283.283,0,0,0,13.369.3a.2.2,0,0,0-.143-.071v.18A.214.214,0,0,0,13.291.6l-.039.042L13.238.625A.21.21,0,0,1,13.173.6a.132.132,0,0,0-.091-.028.046.046,0,0,0-.039.014C13.043.6,13.03.606,13.03.625Zm.091,2.713.052-.071-.052-.1Zm.169-2.227.065-.071h-.117Z" transform="translate(-4.5 0.001)"/>
      </g>
      <g id="Group_2082" data-name="Group 2082" transform="translate(0 6.356)">
        <path id="Path_1845" data-name="Path 1845" class="cls-1" d="M7.62,13.19a.6.6,0,0,1-.238.1l-.042-.014a.957.957,0,0,1-.14-.057,1.471,1.471,0,0,1-.154-.1c-.042-.042-.07-.071-.07-.113s.028-.057.084-.071c.014-.042.014-.071.042-.085a.537.537,0,0,0,.07-.085,2.324,2.324,0,0,1-.5-.142c-.1-.042-.126-.127-.07-.255-.014,0-.028-.014-.042-.014a.106.106,0,0,1-.056-.028c-.014-.014-.042-.014-.056-.028a.047.047,0,0,1,0-.071c.028-.029-.014-.071-.1-.085l-.056-.014a.049.049,0,0,1-.028.014c-.014,0-.014.014-.028.014H6.152c0-.028.014-.042.028-.042l.042-.028c.042-.028.056-.028.056-.042V12.03c.014-.028-.014-.071-.042-.113A1.226,1.226,0,0,0,6.1,11.8a1.227,1.227,0,0,1-.14-.085c-.042-.028-.07-.042-.07-.057a.173.173,0,0,1,.042-.028.173.173,0,0,0,.042-.028l.014-.057a.175.175,0,0,1-.126-.071.207.207,0,0,1-.028-.1.337.337,0,0,1,.028-.113.2.2,0,0,0,0-.127,1.066,1.066,0,0,1-.21.028,1.419,1.419,0,0,1-.238-.014.161.161,0,0,1-.126-.085.86.86,0,0,1-.1-.142,1.389,1.389,0,0,1-.07-.156.4.4,0,0,0-.1-.113l-.168.028a.156.156,0,0,0-.014-.071.156.156,0,0,1-.014-.071V10.51a.206.206,0,0,1,.084-.127.217.217,0,0,0,.1-.142c-.084-.028-.154-.014-.168.014a.987.987,0,0,0-.042.113H4.754a.3.3,0,0,0-.07-.042c-.028,0-.042-.014-.042-.028a.562.562,0,0,1,.028-.085.562.562,0,0,0,.028-.085l.014-.057c-.1-.014-.14-.028-.14,0s-.042.042-.112.071c-.028,0-.056.028-.1.057a.1.1,0,0,1-.084.057c-.042-.071-.07-.113-.084-.142a.594.594,0,0,1,.014-.142.229.229,0,0,1,.056-.1.144.144,0,0,0,.056-.1l-.042-.014a.18.18,0,0,0-.1-.156,1.63,1.63,0,0,0-.28-.1.174.174,0,0,0-.21.113V9.592a.208.208,0,0,1,.126-.142.241.241,0,0,0,.126-.142.137.137,0,0,0,0-.127A.2.2,0,0,0,3.79,9.1c0,.028-.014.042-.014.057v.028a.044.044,0,0,0,.014.028c.014.014.014.028.028.057H3.762a.1.1,0,0,1-.112-.042c-.028-.042-.042-.071-.07-.113a.373.373,0,0,0-.07-.127.664.664,0,0,0-.2-.085.13.13,0,0,1-.042.071c-.014.028-.056.042-.112.042a.443.443,0,0,1-.168-.142.338.338,0,0,0-.182-.142A.5.5,0,0,0,3.133,8.7c.112-.042.168-.1.182-.156A.014.014,0,0,0,3.3,8.53L3.272,8.5a.234.234,0,0,1-.07-.028c-.042-.014-.056-.014-.07-.028V8.431c0-.028.028-.042.084-.028s.084.014.1.028V8.36c0-.042-.028-.071-.084-.071h-.1a.238.238,0,0,1-.112-.014l-.084-.042c-.154-.028-.252-.085-.28-.184a2.438,2.438,0,0,0-.1-.255H2.545q0-.042.084-.042t.084-.042a.092.092,0,0,0-.028-.071A.3.3,0,0,0,2.6,7.5a.849.849,0,0,0-.112-.113.213.213,0,0,0-.154-.028L2.21,7.227c-.07-.057-.112-.085-.126-.113a.052.052,0,0,0-.014-.042c0-.014-.014-.028-.028-.042H1.986a.113.113,0,0,0-.126.1.727.727,0,0,0-.028.127c-.042,0-.084-.042-.126-.113a.753.753,0,0,1-.07-.212,1.142,1.142,0,0,1-.042-.212c0-.071-.014-.113-.014-.142a.212.212,0,0,1,.014-.085.6.6,0,0,1,.028-.071.149.149,0,0,0-.07-.127.209.209,0,0,1-.112-.156L1.4,6.122c-.07-.014-.112-.014-.154-.028a.713.713,0,0,1-.154-.028H1.036L.966,6a.849.849,0,0,1-.112-.113C.812,5.825.77,5.782.742,5.74A.22.22,0,0,1,.7,5.655V5.5c0-.014-.014-.042-.056-.057S.532,5.4.434,5.371l.014-.057.308.057a.322.322,0,0,0-.14-.057.7.7,0,0,1-.182-.028c-.056-.014-.126-.014-.2-.028A.514.514,0,0,1,.08,5.187c.014-.028.042-.028.07-.028s.056.014.084.014H.3c.028,0,.042-.028.056-.057A.1.1,0,0,0,.323,5a.464.464,0,0,1-.14-.085c-.042-.042-.1-.085-.14-.127A.173.173,0,0,1,0,4.649a.061.061,0,0,1,.056-.057h.1a.2.2,0,0,0,.1-.014c.042-.014.056-.057.056-.113,0,0,.014,0,.042.028a.043.043,0,0,0,.028.014H.406A.167.167,0,0,0,.574,4.45a.31.31,0,0,1,.154-.07l.252.057a.32.32,0,0,0,.126-.028c.07-.014.126-.028.14-.028l.07.014a.313.313,0,0,1,.168.071c.028.042.042.085.07.127a.5.5,0,0,1,.056.127.185.185,0,0,0,.14.057.352.352,0,0,0-.1.028c-.042.014-.056.014-.056.028v.028a.743.743,0,0,0,.154.014.634.634,0,0,1,.14.014A.323.323,0,0,1,2.042,5a1.39,1.39,0,0,1,.168.212l.168.212c.056.057.1.1.14.1H2.6c.042-.014.056-.014.056,0a.2.2,0,0,1,.112.2.222.222,0,0,0,.056.2,1.546,1.546,0,0,0,.28.212c.14.085.2.156.182.227a.037.037,0,0,1-.042.042.045.045,0,0,0-.042.042.014.014,0,0,0,.014.014s.014,0,0,.014V6.49c0,.014.028.042.07.1s.07.071.07.085l.014.014V6.7a.049.049,0,0,1-.028.014H3.216v.014H3.189l.014.014c.014,0,.042.014.1.028a.545.545,0,0,0,.084.028.965.965,0,0,1,.07.1.22.22,0,0,1,.042.085l.028.028.028.014c.056,0,.1-.014.1-.057A.291.291,0,0,1,3.664,6.9a1.659,1.659,0,0,1,.238.085c.112.042.168.071.182.113-.014.014-.028.014-.042.028L4,7.142a.014.014,0,0,1-.014.014.052.052,0,0,0-.014.042c0,.028.028.057.084.057s.1.028.084.057a.03.03,0,0,1-.028.028c0,.014-.014.014-.028.028q-.021.106.042.085a.324.324,0,0,1,.154.028.547.547,0,0,1,.112.127,2.619,2.619,0,0,1,.14.227c.04.085.084.17.112.241a.466.466,0,0,1,.042.142.162.162,0,0,1-.042.113.27.27,0,0,0-.028.113.6.6,0,0,0,.322.014c.028-.014.042-.014.042-.028s.028-.014.07,0a.892.892,0,0,1,.168.212c.1.142.21.283.322.453s.224.326.308.467a.779.779,0,0,1,.14.255v.014c-.014,0-.028.014-.056.042-.028-.014-.028.014-.042.014v.028a.161.161,0,0,0,.112.1h.014l.056.014H6.18l-.042.212c0,.028.014.042.042.057a.15.15,0,0,0,.07.014c.1.014.154,0,.154-.042a.43.43,0,0,1,.14.113c.014.028.042.042.028.057a.62.62,0,0,0-.014.071v.1c0,.042.056.113.182.184a.576.576,0,0,1,.21.2l.042-.057a1.029,1.029,0,0,1,.224.156.99.99,0,0,1,.112.142c.028.028.056.071.084.1a.312.312,0,0,0,.168.1c.084.113.182.241.28.4s.2.3.294.453a5.316,5.316,0,0,0,.35.439,2.351,2.351,0,0,0,.4.354V13.1c0,.028-.028.057-.084.1s-.084.071-.084.1l-.126-.028a.192.192,0,0,1,.014-.071.1.1,0,0,0-.056-.085.235.235,0,0,1-.2.028c-.084-.014-.126-.042-.14-.071s-.07-.057-.182-.085a.052.052,0,0,0,.014.042.086.086,0,0,1,.014.057q0,.021-.042.042-.021.021-.126,0L7.9,13.1l-.028-.028c-.014-.014-.014-.014-.014-.028L7.83,13.03H7.788C7.774,13.091,7.718,13.133,7.62,13.19ZM1.441,4.69A.051.051,0,0,0,1.4,4.677H1.231l-.014-.014-.028-.028c.056,0,.084-.028.084-.071a.252.252,0,0,0,.014-.085.282.282,0,0,0-.154,0,.089.089,0,0,0-.07.085c-.014.042,0,.085.056.127a.514.514,0,0,0,.2.1l.042.014h.014A.175.175,0,0,0,1.4,4.762c.028-.014.028-.028.028-.042.027-.014.013-.014.013-.028ZM1.2,4.86l-.126-.028.07.042Zm-.07,1.006-.07.028.056.057Zm.419-.836L1.37,4.988v.085a.128.128,0,0,0,.084.057h.014L1.5,5.1c.028-.014.042-.014.042-.028Zm-.126-.113c0,.014,0,.028.028.042s.042,0,.042-.028,0-.028-.028-.042-.027,0-.041.029ZM1.9,5.1a.223.223,0,0,0-.21.057.2.2,0,0,0-.07.127.237.237,0,0,0,.21-.042.254.254,0,0,0,.07-.1ZM1.888,6.335a.119.119,0,0,0-.042-.1.269.269,0,0,0-.126-.071l-.042.184.1.042c.014,0,.028-.014.056-.028a.173.173,0,0,0,.042-.028Zm-.056-.453-.014.071c.028,0,.056.014.112.014a.269.269,0,0,0,.112-.014Zm.14-.524a.064.064,0,0,0,.07.057h.042a.241.241,0,0,0-.028-.071c0-.028-.028-.042-.07-.057,0,.028-.014.042-.014.07Zm.238.453L2.14,5.8a.272.272,0,0,0-.154,0l.21.042ZM2,6.476l-.07-.014L2,6.5Zm.126-.864.056.014a.22.22,0,0,0-.042-.085ZM2.042,6.859c0,.014.014.028.028.042s.014,0,.028-.028,0-.042-.014-.028C2.056,6.83,2.042,6.845,2.042,6.859Zm.2-.567h-.07l.07.014Zm.308.921L2.476,7.2l-.014.071.07.014ZM2.657,6.9a.2.2,0,0,0,.14.113V6.972c.014-.1-.028-.156-.154-.184A.356.356,0,0,0,2.657,6.9Zm.07.694c0,.028.014.042.042.057s.042,0,.042-.028,0-.042-.028-.042c-.028-.028-.056-.014-.056.019Zm.573-.68L3.258,6.9l.042.071Zm.1.156-.084-.014v.028a.03.03,0,0,1,.028.028c.014.014.014.028.028.042ZM3.23,8.8a.051.051,0,0,0,.042-.014c0-.014-.014-.014-.028-.028s-.028,0-.028.014S3.216,8.8,3.23,8.8ZM3.7,7.582l-.07-.014V7.61l.07.014ZM3.468,8.629c0,.014.014.028.028.042s.042,0,.042-.028,0-.042-.028-.042S3.468,8.6,3.468,8.629Zm.266-1.076c0,.014,0,.028.028.028s.056,0,.056-.014-.014-.028-.056-.042c-.014.014-.028.014-.028.028Zm.4.567V8.1H4.055v.042Zm.042.312c.028,0,.042,0,.042-.014s0-.014-.028-.028c-.056,0-.056.01-.014.041Zm.028.722c0,.014,0,.028.028.042s.056,0,.056-.014-.014-.028-.042-.042-.042-.015-.042.013Zm.042.085c0,.028.014.042.042.057a.05.05,0,0,0,.07-.028c.014-.028-.014-.042-.042-.057s-.07,0-.07.027Zm.294.524q0-.021-.042-.042c-.042-.014-.042,0-.042.014a.056.056,0,0,0,.084.027Zm.14-.482c-.042,0-.07.014-.07.042a.077.077,0,0,1-.028.057l.07.014Zm.377.34q-.084,0-.084.042c.1.014.154.014.168-.014Zm-.014.921v.014a.052.052,0,0,0,.014.042.052.052,0,0,1,.014.042.093.093,0,0,0,.1-.057c.014-.042.014-.057.028-.071-.1-.012-.156-.012-.156.029Zm.336-.666a.044.044,0,0,0-.014-.028c-.056,0-.084.014-.084.057v.028c.042,0,.07,0,.084-.014a.052.052,0,0,0,.014-.042ZM6.67,10.8l-.084-.014v.028l.084.014Zm-.028.453-.07-.014a.072.072,0,0,0,.056.071Zm.07-.34L6.656,10.9l-.014.071.056.014Zm-.07,1.261.056.014a.123.123,0,0,0-.042-.085Zm.5-1.034-.1-.057-.014.071Zm.1,1.8H7.2a.14.14,0,0,0-.042.014v.014a.17.17,0,0,0,.056.113.223.223,0,0,0,.154.071v-.113c-.014-.057-.028-.085-.07-.1Zm1.076.1c0,.028.014.042.07.042.028,0,.042,0,.042-.028s0-.042-.028-.042c-.055-.006-.083.008-.083.022Z" transform="translate(0.002 -4.38)"/>
      </g>
    </g>
  </g>
</svg>
