<svg xmlns="http://www.w3.org/2000/svg" viewBox="0 0 40 40">
  <defs>
    <style>
      .cls-1 {
        fill: #fff;
      }
    </style>
  </defs>
  <g id="icon_phone" transform="translate(0)">
    <path id="Path_1598" data-name="Path 1598" class="cls-1" d="M32.63,0H15.922A2.933,2.933,0,0,0,13,2.936V37.063A2.934,2.934,0,0,0,15.922,40h16.7a2.934,2.934,0,0,0,2.923-2.936V2.936A2.933,2.933,0,0,0,32.63,0Zm-18.3,5.333h19.9V30.664h-19.9Zm1.6-4h16.7a1.6,1.6,0,0,1,1.6,1.6V4H14.326V2.936a1.6,1.6,0,0,1,1.6-1.6ZM32.63,38.667H15.922a1.6,1.6,0,0,1-1.6-1.6V32h19.9v5.066a1.6,1.6,0,0,1-1.6,1.6Z" transform="translate(-4.276)"/>
    <path id="Path_1599" data-name="Path 1599" class="cls-1" d="M28.684,49a2.684,2.684,0,1,0,2.684,2.684A2.684,2.684,0,0,0,28.684,49Zm0,4.027a1.342,1.342,0,1,1,1.342-1.342A1.342,1.342,0,0,1,28.684,53.027Z" transform="translate(-8.685 -16.382)"/>
    <path id="Path_1602" data-name="Path 1602" class="cls-1" d="M56.051,4.473a.671.671,0,0,0-.949.949,6.439,6.439,0,0,1,0,9.1.671.671,0,0,0,.949.949,7.782,7.782,0,0,0,0-10.993Z" transform="translate(-18.324 -1.407)"/>
    <path id="Path_1603" data-name="Path 1603" class="cls-1" d="M51.84,6.749a.671.671,0,0,0-.949.949,4.408,4.408,0,0,1,0,6.226.671.671,0,0,0,.949.949,5.749,5.749,0,0,0,0-8.124Z" transform="translate(-16.939 -2.155)"/>
    <path id="Path_1604" data-name="Path 1604" class="cls-1" d="M3.223,5.422a.671.671,0,1,0-.949-.949,7.782,7.782,0,0,0,0,10.993.671.671,0,0,0,.949-.949,6.438,6.438,0,0,1,0-9.095Z" transform="translate(-0.001 -1.407)"/>
    <path id="Path_1605" data-name="Path 1605" class="cls-1" d="M7.724,6.473a.67.67,0,0,0-.949,0,5.749,5.749,0,0,0,0,8.124.671.671,0,0,0,.949-.949,4.408,4.408,0,0,1,0-6.226A.672.672,0,0,0,7.724,6.473Z" transform="translate(-1.676 -2.064)"/>
  </g>
</svg>
