<svg xmlns="http://www.w3.org/2000/svg" viewBox="0 0 16.31 15.66"><defs><style>.cls-1{fill:#fff;}</style></defs><title>icon_x_table</title><g id="Layer_2" data-name="Layer 2"><g id="Layer_1-2" data-name="Layer 1"><path class="cls-1" d="M14.54,15a1.73,1.73,0,0,1,.05-.38,2.15,2.15,0,0,0,0-.45c-.12,0-.19.08-.2.25a.44.44,0,0,1-.2.37.72.72,0,0,1-.12-.22.21.21,0,0,0-.19-.15c-.08,0-.13,0-.15.17a.22.22,0,0,1-.16.2v-1s0,0-.06-.05a.31.31,0,0,1-.12,0,.11.11,0,0,1-.1,0h-.12a1.77,1.77,0,0,1-.06.29c0,.15-.11.23-.22.23h-.09a3.44,3.44,0,0,1-.5,0,4.48,4.48,0,0,0-.49,0,.18.18,0,0,1-.09-.16V13.8a2.19,2.19,0,0,1,0-.36,2,2,0,0,0,0-.35h-.2a.89.89,0,0,0-.28.07.58.58,0,0,0-.23.13.21.21,0,0,0,0,.25v-.28a1,1,0,0,1,0-.31s.1-.06.24-.06a.75.75,0,0,1,.07-.15c0-.08,0-.14,0-.16l-.17,0-.17-.05a.1.1,0,0,1-.07-.05L11,12.38a.12.12,0,0,0,.13-.13l0,0a.57.57,0,0,0-.52.22,1.24,1.24,0,0,0-.13.65c0-.06,0-.18,0-.36a2.15,2.15,0,0,0-.06-.35l-.06-.07-.06-.06-.06.06-.06.07a.17.17,0,0,1-.1,0H9.87v-.65a0,0,0,0,0,0,0H9.71a1.78,1.78,0,0,0-.38.17.31.31,0,0,0-.17.35l-.14,0H8.88c-.23,0-.37,0-.43-.17a1,1,0,0,1-.1-.51H8.6v-.25a.93.93,0,0,1-.46-.12.48.48,0,0,1-.22-.46v0A.33.33,0,0,1,8,10.61.31.31,0,0,0,8,10.49a.5.5,0,0,0-.1-.13c-.06,0-.09-.06-.11-.06A.44.44,0,0,0,8,9.93a.37.37,0,0,0-.31-.37,2,2,0,0,0-.55-.09H6.9a.29.29,0,0,1,.18.25,1.37,1.37,0,0,1,0,.34s-.07.13-.19.29-.27.31-.43.48-.33.32-.5.46a.71.71,0,0,1-.34.22l-.06,0a1.23,1.23,0,0,1-.08-.26.2.2,0,0,0-.14-.17.34.34,0,0,0-.2.27,2.58,2.58,0,0,1-.11.42.69.69,0,0,1-.2.34c-.09.09-.26.1-.51,0v.18a.69.69,0,0,0,.37.62l-.12,1.15s0,0-.09.09l-.16.12h0c-.1,0-.14-.06-.12-.2s0-.2-.16-.2a.09.09,0,0,1-.06,0l-.06,0-.25.2a.8.8,0,0,1-.25.17.92.92,0,0,1-.4.11,1.17,1.17,0,0,1-.4,0,.09.09,0,0,0,0,.06v.06a.34.34,0,0,0,.08.25.37.37,0,0,1,.07.25.66.66,0,0,1-.1.37.36.36,0,0,1-.3.15.27.27,0,0,1-.18-.07A.32.32,0,0,0,2,15.41a.25.25,0,0,0-.22.08s-.14.07-.31.07H1.16c-.07,0-.11-.09-.11-.24a1.08,1.08,0,0,1,.26-.64l.42-.56a1.47,1.47,0,0,0,.08-.25,1.65,1.65,0,0,0,.05-.22.68.68,0,0,1,.06-.2A.12.12,0,0,1,2,13.38l.1-.06a.83.83,0,0,0,.19-.23c.14-.25.27-.5.39-.76a4,4,0,0,1,.41-.73c.15-.2.32-.43.53-.68s.4-.5.59-.77a8.59,8.59,0,0,0,.48-.81,1.85,1.85,0,0,0,.2-.83.24.24,0,0,0-.11-.2l-.25-.17a1.26,1.26,0,0,1-.24-.22.45.45,0,0,1-.11-.34v0a1.23,1.23,0,0,1,0-.28c0-.12.06-.18.08-.18h.25a1.22,1.22,0,0,0,.08.43c0,.06.06.1.1.11a.24.24,0,0,0,.14,0,.34.34,0,0,1,.23,0,1.13,1.13,0,0,1,.14.19A.74.74,0,0,0,5.41,8l.07,0A.16.16,0,0,0,5.62,8a.39.39,0,0,0,0-.18.74.74,0,0,0,0-.24l-.06-.14a.49.49,0,0,1-.05-.17,1.31,1.31,0,0,1,0-.32.45.45,0,0,1-.31-.26A.85.85,0,0,0,5,6.31v.16A1,1,0,0,0,5.1,7a.88.88,0,0,1,.13.47A.26.26,0,0,1,5,7.32L4.87,7.1a1.5,1.5,0,0,0-.11-.22.22.22,0,0,0-.21-.1.58.58,0,0,0-.2.06l-.17.06C4.09,6.9,4,6.83,4,6.7a.39.39,0,0,0-.14-.26H3.74l-.15,0-.16,0H3.31c0-.06-.05-.15-.09-.25A1.64,1.64,0,0,0,3.06,6a.64.64,0,0,0-.21-.22.37.37,0,0,0-.31,0,2.35,2.35,0,0,0-.2-.49A1.58,1.58,0,0,0,2.1,5a2,2,0,0,0-.27-.23,1.72,1.72,0,0,1-.35-.33A.5.5,0,0,1,1.38,4a1.26,1.26,0,0,0,0-.43.78.78,0,0,0-.25-.47.57.57,0,0,1-.21-.37q0-.15.12-.15c.08,0,.13-.08.13-.25S1.15,2,1.11,2A1.31,1.31,0,0,0,.84,2v.53a.25.25,0,0,0-.31.2,1.18,1.18,0,0,0-.07.35H.31V2.13C.1,2.07,0,2,0,1.83a.22.22,0,0,1,.25-.25V.9Q.34.9.34.93L.4,1A.09.09,0,0,0,.46,1H.59A.09.09,0,0,0,.65,1V0H.93A1.78,1.78,0,0,0,1,.29c0,.16.1.26.21.3L1.39.34a.4.4,0,0,1,.14.23c0,.12.06.2.08.27L2,.59A.43.43,0,0,0,2.13.9c.09.12.18.25.28.37a3.55,3.55,0,0,0,.33.34A2.65,2.65,0,0,1,3,1.83l.23.06A.88.88,0,0,1,3.43,2c.07,0,.1.08.1.11v.09a.11.11,0,0,0,0,.08.31.31,0,0,0,.18,0l.07-.06.06-.07h.06a.22.22,0,0,1,.17.11,2,2,0,0,1,.14.25l.12.28a.29.29,0,0,0,.19.17l0,0a.4.4,0,0,0,.28-.14.43.43,0,0,1,.34-.14c.16,0,.27,0,.32.13a1.11,1.11,0,0,1,.13.29,1.1,1.1,0,0,0,.12.29c.05.09.16.13.33.13l.12-.06a.35.35,0,0,0,.09-.07.45.45,0,0,1,.25.44s0,0,0,0,0,0,0,0v0a.35.35,0,0,1-.06-.09c-.07-.07-.12-.1-.16-.1H6.25A.35.35,0,0,0,6.39,4a1,1,0,0,0,.34.17,1.87,1.87,0,0,0,.4.07,2.13,2.13,0,0,0,.33,0h.37c.08,0,.18-.12.29-.31s.25-.4.4-.65a7.1,7.1,0,0,1,.53-.73A2.38,2.38,0,0,1,9.71,2a.35.35,0,0,0,.18-.21,1,1,0,0,0,0-.25.8.8,0,0,1,.2.23A1.5,1.5,0,0,0,10.3,2l-.59.22.1.43h.83V2.07H11c.17,0,.25-.06.25-.18V1.83a.1.1,0,0,0,0-.07l-.07-.06a.14.14,0,0,0,0-.06.13.13,0,0,1,0-.06h.58c.06,0,.1-.07.11-.2s0-.21,0-.23H12c0,.16.09.35.14.57A.37.37,0,0,0,12.5,2c.12,0,.2,0,.23-.06a.25.25,0,0,1,.2-.06l0,0a1.52,1.52,0,0,1,.08.32c0,.18.05.29.05.33v.09a1.21,1.21,0,0,1-.06.45.81.81,0,0,1-.17.23,1.39,1.39,0,0,1-.27.17,1,1,0,0,0-.31.3.78.78,0,0,0-.11.48.46.46,0,0,1-.2.44.65.65,0,0,1-.09-.26.34.34,0,0,0-.12-.23.81.81,0,0,1-.13.4.71.71,0,0,1-.2.19,1.37,1.37,0,0,0-.21.15.45.45,0,0,0-.14.31,1.48,1.48,0,0,1-.05.25c0,.12-.07.25-.11.37a1.75,1.75,0,0,1-.15.34.28.28,0,0,1-.22.16h0l-.08-.11a.27.27,0,0,1,0-.14.78.78,0,0,0-.34.62.81.81,0,0,0,.15.48,2.5,2.5,0,0,0,.36.37,2.89,2.89,0,0,1,.35.35.66.66,0,0,1,.16.41v0a.34.34,0,0,1-.05.14.49.49,0,0,1-.08.1v.1l.08.14a.29.29,0,0,1,.05.1h.12a.33.33,0,0,0,.06-.12.49.49,0,0,0,0-.12h.13a1.23,1.23,0,0,1,.72.65,4,4,0,0,0,.61.86,3.6,3.6,0,0,0,.43.39l.57.46a6.5,6.5,0,0,1,.54.47,2.32,2.32,0,0,1,.38.42.59.59,0,0,1,0,.24c0,.15,0,.22.08.22a.24.24,0,0,0,.17.06c.07,0,.12,0,.14-.06A4.07,4.07,0,0,1,16,13.64a3.12,3.12,0,0,1,.27,1.4q-.16,0-.33-.33a.55.55,0,0,0-.51-.32.86.86,0,0,0-.39.09.39.39,0,0,0-.17.37H15l.09-.18.09,0,0,0c-.06.18-.05.3,0,.37a.92.92,0,0,0,.3.14l.32.07c.1,0,.16.08.16.16h0a.8.8,0,0,1-.16.15.41.41,0,0,1-.18.1l-.1-.07-.12-.06h-.31a1.2,1.2,0,0,1-.28,0,.48.48,0,0,1-.22-.14A.62.62,0,0,1,14.54,15Zm-12.81-.3a.09.09,0,0,0,0,.18c.06,0,.1,0,.1-.09S1.79,14.67,1.73,14.67ZM2,14.2s-.06,0-.06.11,0,.11.06.11.09,0,.09-.11S2.1,14.2,2,14.2Zm.25-.65a.08.08,0,0,0-.09.09c0,.07,0,.1.09.1s.09,0,.09-.1A.08.08,0,0,0,2.29,13.55Zm.22-.43a0,0,0,0,0,0,0q0,.12.09.12V13c-.06,0-.09,0-.09.13Zm.24-11H3L2.88,2,2.82,2a.09.09,0,0,0-.07,0Zm0,11.73H3a.46.46,0,0,0-.06-.18.35.35,0,0,1,0-.13l0,0a0,0,0,0,1,0,0s-.07,0-.07.06Zm.31-.68a2,2,0,0,0,0,.37.56.56,0,0,0,.22.31v-1l-.12-.12c-.11,0-.15.09-.14.23S3.06,13.16,3.06,13.18ZM3.19,5a.07.07,0,0,0,0,.06l.08.06V5l-.06-.08a.07.07,0,0,0-.06,0l0,.06Zm.74,8.2a.16.16,0,0,0,.12.18v-.18ZM6.22,6.31a.23.23,0,0,0,.22.13V6.19A.26.26,0,0,0,6.22,6.31Zm.56,2.48a.44.44,0,0,0,.07.26.24.24,0,0,0,.2.11.44.44,0,0,0,.16-.09,2.73,2.73,0,0,0,.26-.24,2.26,2.26,0,0,0,.25-.29.51.51,0,0,0,.11-.25c0-.08,0-.13-.1-.14H7.55c-.06,0-.14.08-.22.24a.66.66,0,0,1-.55.31Zm.12-2c-.06,0-.09,0-.09.1s0,.11.09.11S7,7,7,6.88,6.94,6.78,6.9,6.78Zm.93-.72c0,.09,0,.13.09.13a.8.8,0,0,0,.23,0l.23,0V5.94A1.52,1.52,0,0,0,7.83,6.06ZM8,8.66s0,.12,0,.22.06.15.14.15h.09l.12-.12v0a.17.17,0,0,0-.13-.19Zm.81,3.07c-.06,0-.09,0-.09.1s0,.11.09.11.09,0,.09-.11S8.88,11.73,8.82,11.73Zm.55-4.52H9.5V7.09H9.37Zm.34-1.83V5.32H9.59ZM9.59,8h.12V7.89H9.59Zm.22-4.48c-.06,0-.1.09-.1.2v.2h.1Zm-.1,5.38a.36.36,0,0,0,.1.25V8.91Zm.1-1.36c0,.18.1.28.31.28,0,0,0-.13,0-.27a.22.22,0,0,0-.17-.23l-.08.11A.24.24,0,0,0,9.81,7.55Zm.37,1.61s-.06,0-.06.09,0,.11.06.09.06,0,.06-.09S10.22,9.16,10.18,9.16Zm.12-5.42h.1l-.1-.09Zm.1,4.95s0-.06-.05-.06,0,0,0,.06,0,.07,0,.07S10.4,8.74,10.4,8.69Zm.24,1a.18.18,0,0,0,.13-.19V9.31s0-.14,0-.31-.08-.24-.2-.24l0,0Zm0-1.4h.1V8.2Zm.1-2.94c-.05,0-.07,0-.07.13s0,.12.07.12.09,0,.09-.12S10.8,5.38,10.74,5.38ZM11,2.51h.28A.22.22,0,0,0,11,2.26h0Zm0,8h.25v-.13H11Zm.25-.56h.09V9.81Zm.65.87h-.22a.21.21,0,0,0-.21.12h.43Zm-.34,1.33h.15c0-.06-.05-.13-.15-.19Zm.25-.71h.09l-.09-.13Zm.43,1.17v-.21l-.12.12Zm.09,1.15s0-.06,0-.06-.07,0-.05.06,0,.06.05.06S12.28,13.78,12.28,13.74Zm.25-1.15c-.06,0-.09,0-.09.13s0,.12.09.12.06,0,.06-.12S12.57,12.59,12.53,12.59Zm.22-10.21a.1.1,0,0,0-.1.11.1.1,0,0,0,.1.11s.06,0,.06-.11S12.79,2.38,12.75,2.38Zm0,11.17a.34.34,0,0,1,0-.15.58.58,0,0,0,.05-.13.07.07,0,0,1,0-.06.13.13,0,0,0,0-.06h-.12Zm.68-.46h.12V13h-.12ZM13.64,12a.22.22,0,0,0,.25.24V12Z"/></g></g></svg>