<svg xmlns="http://www.w3.org/2000/svg" viewBox="0 0 40 40">
  <defs>
    <style>
      .cls-1 {
        fill: #fff;
      }
    </style>
  </defs>
  <g id="icon_mail" transform="translate(0.002 0.001)">
    <path id="Path_1606" data-name="Path 1606" class="cls-1" d="M39.992.755a.815.815,0,0,0-.031-.135.9.9,0,0,0-.053-.141C39.895.453,39.891.426,39.876.4a.533.533,0,0,0-.036-.04.9.9,0,0,0-.1-.107.852.852,0,0,0-.112-.1C39.615.147,39.6.132,39.59.124S39.535.1,39.513.088A.9.9,0,0,0,39.368.03a.915.915,0,0,0-.128-.022A.892.892,0,0,0,39.088,0a.781.781,0,0,0-.141.023.8.8,0,0,0-.09.015L.59,13.086A.869.869,0,0,0,.559,14.72L18.435,21.59l7.726,17.885a.871.871,0,0,0,.8.524H27a.871.871,0,0,0,.785-.6L39.967,1.125a.651.651,0,0,0,.012-.083A.821.821,0,0,0,40,.9a.866.866,0,0,0-.007-.143ZM3.423,13.961,35.878,2.891l-17,17Zm23.415,22.7L20.124,21.116,37.225,4Z" transform="translate(-0.002 0)"/>
    <path id="Path_1607" data-name="Path 1607" class="cls-1" d="M12.82,240.157a.815.815,0,0,0-1.154,0L.24,251.583a.816.816,0,0,0,1.154,1.154L12.82,241.311a.815.815,0,0,0,0-1.154Z" transform="translate(-0.001 -212.977)"/>
    <path id="Path_1608" data-name="Path 1608" class="cls-1" d="M93.953,296.157,88.24,301.87a.816.816,0,1,0,1.154,1.154l5.713-5.713a.816.816,0,0,0-1.154-1.154Z" transform="translate(-78.29 -263.264)"/>
    <path id="Path_1609" data-name="Path 1609" class="cls-1" d="M.817,215.264a.814.814,0,0,0,.577-.239l5.713-5.713a.816.816,0,1,0-1.154-1.154L.24,213.87a.816.816,0,0,0,.577,1.393Z" transform="translate(-0.001 -184.975)"/>
  </g>
</svg>
