<?xml version="1.0" encoding="utf-8"?>
<!-- Generator: Adobe Illustrator 23.0.1, SVG Export Plug-In . SVG Version: 6.00 Build 0)  -->
<svg version="1.1" id="Layer_1" xmlns="http://www.w3.org/2000/svg" xmlns:xlink="http://www.w3.org/1999/xlink" x="0px" y="0px"
	 viewBox="0 0 6 30.3" style="enable-background:new 0 0 6 30.3;" xml:space="preserve">
<style type="text/css">
	.st0{enable-background:new    ;}
	.st1{fill:#FFFFFF;}
</style>
<g class="st0">
	<path class="st1" d="M4.5,7.6c0.2,0,0.3-0.1,0.3-0.2c0,0-0.1-0.1-0.1-0.1C4.6,7.3,4.5,7.4,4.4,7.5C4.3,7.6,4.2,7.7,4.2,7.7
		c0,0-0.1,0-0.1,0H4V7.3c0,0,0,0-0.1,0c0,0,0,0-0.1,0c0,0,0,0,0,0.1c0,0-0.1,0-0.1,0.1c0,0,0,0-0.1,0.1c0,0.1,0,0.1-0.1,0.1
		c0,0-0.1,0-0.1,0c0,0,0,0,0,0s0,0,0,0c0,0,0,0-0.1,0c0,0-0.1,0-0.2,0c-0.1,0-0.1,0-0.2,0c0-0.1,0-0.2,0-0.3C3,7.1,3,7.1,3,7
		C2.9,7,2.8,7.1,2.6,7.2C2.5,7.3,2.4,7.4,2.3,7.5c0.1-0.3,0-0.5-0.1-0.7C2.1,6.6,1.9,6.4,1.7,6.3C1.5,6.1,1.4,6,1.2,5.9
		C1,5.7,0.9,5.6,0.9,5.5c0-0.1,0-0.2,0-0.3C1,5.1,1,5,1,4.9c-0.2,0-0.2,0-0.2,0.1c0,0.1,0,0.2-0.1,0.3h0c0,0-0.1-0.1-0.1-0.4
		C0.5,4.7,0.5,4.4,0.4,4.1C0.3,3.8,0.3,3.5,0.3,3.3c0-0.3-0.1-0.4-0.1-0.4c0-0.1,0-0.2,0-0.3c0-0.1,0.1-0.1,0.2-0.1h0.1
		c0,0,0,0.1,0,0.2c0,0.1,0,0.1,0,0.1h0.1L1.5,2C1.8,1.8,2,1.6,2.2,1.4c0.2-0.2,0.3-0.2,0.4-0.2v0.7c0.2,0,0.3,0,0.4-0.1
		c0.1-0.1,0.2-0.2,0.3-0.3c0,0,0.1,0.1,0.3,0.4C3.8,2,3.9,2.2,3.9,2.3c0,0.1,0,0.1,0,0.1c0,0,0,0.1,0,0.1c0,0.2,0,0.3,0,0.3
		c0,0,0.1,0.1,0.2,0.1c0-0.2,0-0.3,0.1-0.4s0.1-0.3,0.1-0.4c0-0.2-0.1-0.4-0.2-0.4C4,1.6,3.9,1.5,3.8,1.3c0,0,0-0.1,0-0.1
		C3.9,1.2,4,1.1,3.9,1.1C3.9,1.1,4,1,4,1c0,0,0.1,0,0.2,0.1c0.1,0,0.1,0.1,0.2,0.1c0,0,0,0.1,0,0.1s0,0.1,0,0.1
		c0.3,0,0.5,0.1,0.6,0.3C5,1.9,5.1,2.2,5.1,2.4c0,0.3,0.1,0.5,0.1,0.8c0,0.3,0,0.5,0,0.7c0,0,0,0.1,0,0.2c0,0.1,0,0.1,0,0.2v0.1
		c0,0.1,0,0.2,0,0.3c0,0.1,0,0.2,0,0.3c0,0.2,0,0.3,0.1,0.5c0.1,0.1,0.1,0.3,0.1,0.5c0,0,0,0.1,0,0.2c0,0.1-0.1,0.1-0.2,0.1h0
		c0,0-0.1-0.1-0.2-0.1C5,6.1,4.9,6.1,4.9,6.1c0,0,0,0,0,0.1c0,0,0,0.1,0,0.1c0,0.1,0.1,0.2,0.2,0.3c0.2,0.1,0.2,0.2,0.2,0.3
		c0,0,0,0.1,0,0.2s0,0.2,0,0.2c0,0,0,0.1,0.1,0.1c0.1,0,0.1,0,0.1,0c0,0,0,0.1-0.1,0.1c0,0-0.1,0.1-0.1,0.2c0,0.1,0,0.2,0.1,0.2
		c0.1,0,0.1,0,0.1,0.1c0,0-0.1,0-0.3,0C5.1,7.9,5.1,8,5.1,8.1C5.1,8,4.9,8,4.7,7.9C4.6,7.9,4.5,7.8,4.5,7.6z M1.5,2.4L1.5,2.4
		L1.5,2.4L1.5,2.4z M1.9,2.1c0,0.1,0.1,0.1,0.2,0.1c0.1,0,0.2-0.1,0.2-0.2c0-0.1,0-0.2,0-0.3c-0.1,0-0.2,0-0.2,0.1
		C2.1,2,2,2.1,1.9,2.1z M2.8,0.6c0,0,0-0.1,0.1-0.3c0-0.1,0-0.2,0-0.3h0c0,0,0.1,0,0.2,0.1c0.1,0.1,0.2,0.1,0.2,0.2
		c0,0,0,0.1-0.1,0.1C3.2,0.6,3.1,0.7,3,0.8v0v0c0,0,0,0.1,0.1,0.1s0,0.1,0.1,0.1H3c-0.1,0-0.1,0-0.2-0.1c0-0.1,0-0.1,0-0.2V0.6z
		 M3.3,2.3h0.1c0,0,0-0.1,0-0.2s0-0.2-0.1-0.2V2.3z M3.7,4.3C3.7,4.3,3.7,4.3,3.7,4.3C3.7,4.4,3.7,4.4,3.7,4.3
		C3.7,4.4,3.8,4.4,3.7,4.3C3.8,4.3,3.7,4.3,3.7,4.3z M4.2,3.1C4.1,3.2,4,3.2,4,3.3h0.2V3.1z M4.4,3.5c0,0-0.1,0-0.1,0.1
		s0,0.1,0.1,0.1c0,0,0.1-0.1,0.1-0.1C4.5,3.6,4.4,3.6,4.4,3.5z M4.6,2.4C4.5,2.4,4.5,2.5,4.6,2.4C4.5,2.5,4.5,2.6,4.6,2.4
		C4.6,2.5,4.7,2.5,4.6,2.4C4.7,2.4,4.6,2.4,4.6,2.4z M4.5,2.8c0,0.1,0.1,0.1,0.2,0.2V2.8H4.5z M5,5.4C5,5.4,5,5.5,5,5.4
		C5,5.6,5,5.6,5,5.6S5.1,5.6,5,5.4C5.1,5.5,5.1,5.4,5,5.4z M5,6.7C5,6.7,5,6.8,5,6.7C5,6.9,5,6.9,5,6.9S5.1,6.9,5,6.7
		C5.1,6.8,5.1,6.7,5,6.7z"/>
</g>
<g class="st0">
	<path class="st1" d="M4.5,18.6c0.2,0,0.3-0.1,0.3-0.2c0,0-0.1-0.1-0.1-0.1c-0.1,0.1-0.2,0.1-0.3,0.2c-0.1,0.1-0.2,0.2-0.3,0.2
		c0,0-0.1,0-0.1,0H4v-0.4c0,0,0,0-0.1,0c0,0,0,0-0.1,0c0,0,0,0,0,0.1c0,0-0.1,0-0.1,0.1c0,0,0,0-0.1,0.1c0,0.1,0,0.1-0.1,0.1
		c0,0-0.1,0-0.1,0c0,0,0,0,0,0s0,0,0,0c0,0,0,0-0.1,0c0,0-0.1,0-0.2,0c-0.1,0-0.1,0-0.2,0c0-0.1,0-0.2,0-0.3c0-0.1,0-0.1,0-0.2
		c-0.1,0-0.2,0.1-0.4,0.2c-0.2,0.1-0.3,0.2-0.3,0.3c0.1-0.3,0-0.5-0.1-0.7c-0.1-0.2-0.3-0.4-0.5-0.5c-0.2-0.2-0.4-0.3-0.5-0.4
		c-0.2-0.1-0.2-0.2-0.2-0.4c0-0.1,0-0.2,0-0.3c0-0.1,0-0.2,0-0.3c-0.2,0-0.2,0-0.2,0.1c0,0.1,0,0.2-0.1,0.3h0c0,0-0.1-0.1-0.1-0.4
		c-0.1-0.3-0.1-0.5-0.2-0.8c-0.1-0.3-0.1-0.6-0.1-0.8c0-0.3-0.1-0.4-0.1-0.4c0-0.1,0-0.2,0-0.3c0-0.1,0.1-0.1,0.2-0.1h0.1
		c0,0,0,0.1,0,0.2c0,0.1,0,0.1,0,0.1h0.1L1.5,13c0.2-0.2,0.5-0.4,0.7-0.5c0.2-0.2,0.3-0.2,0.4-0.2v0.7c0.2,0,0.3,0,0.4-0.1
		c0.1-0.1,0.2-0.2,0.3-0.3c0,0,0.1,0.1,0.3,0.4c0.2,0.2,0.3,0.4,0.3,0.5c0,0.1,0,0.1,0,0.1c0,0,0,0.1,0,0.1c0,0.2,0,0.3,0,0.3
		c0,0,0.1,0.1,0.2,0.1c0-0.2,0-0.3,0.1-0.4s0.1-0.3,0.1-0.4c0-0.2-0.1-0.4-0.2-0.4c-0.1-0.1-0.2-0.2-0.2-0.3c0,0,0-0.1,0-0.1
		c0.1-0.1,0.1-0.1,0.1-0.1C3.9,12.1,4,12,4,12c0,0,0.1,0,0.2,0.1c0.1,0,0.1,0.1,0.2,0.1c0,0,0,0.1,0,0.1s0,0.1,0,0.1
		c0.3,0,0.5,0.1,0.6,0.3c0.1,0.2,0.2,0.4,0.2,0.7c0,0.3,0.1,0.5,0.1,0.8c0,0.3,0,0.5,0,0.7c0,0,0,0.1,0,0.2c0,0.1,0,0.1,0,0.2v0.1
		c0,0.1,0,0.2,0,0.3c0,0.1,0,0.2,0,0.3c0,0.2,0,0.3,0.1,0.5c0.1,0.1,0.1,0.3,0.1,0.5c0,0,0,0.1,0,0.2c0,0.1-0.1,0.1-0.2,0.1h0
		c0,0-0.1-0.1-0.2-0.1c-0.1,0-0.1-0.1-0.1-0.1c0,0,0,0,0,0.1c0,0,0,0.1,0,0.1c0,0.1,0.1,0.2,0.2,0.3c0.2,0.1,0.2,0.2,0.2,0.3
		c0,0,0,0.1,0,0.2s0,0.2,0,0.2c0,0,0,0.1,0.1,0.1c0.1,0,0.1,0,0.1,0c0,0,0,0.1-0.1,0.1c0,0-0.1,0.1-0.1,0.2c0,0.1,0,0.2,0.1,0.2
		c0.1,0,0.1,0,0.1,0.1c0,0-0.1,0-0.3,0c-0.2,0-0.2,0.1-0.2,0.2C5.1,19,4.9,19,4.7,18.9C4.6,18.9,4.5,18.8,4.5,18.6z M1.5,13.4
		L1.5,13.4L1.5,13.4L1.5,13.4z M1.9,13.1c0,0.1,0.1,0.1,0.2,0.1c0.1,0,0.2-0.1,0.2-0.2c0-0.1,0-0.2,0-0.3c-0.1,0-0.2,0-0.2,0.1
		C2.1,13,2,13.1,1.9,13.1z M2.8,11.6c0,0,0-0.1,0.1-0.3c0-0.1,0-0.2,0-0.3h0c0,0,0.1,0,0.2,0.1c0.1,0.1,0.2,0.1,0.2,0.2
		c0,0,0,0.1-0.1,0.1c-0.1,0.1-0.2,0.1-0.2,0.2v0v0c0,0,0,0.1,0.1,0.1s0,0.1,0.1,0.1H3c-0.1,0-0.1,0-0.2-0.1c0-0.1,0-0.1,0-0.2V11.6z
		 M3.3,13.3h0.1c0,0,0-0.1,0-0.2s0-0.2-0.1-0.2V13.3z M3.7,15.3C3.7,15.3,3.7,15.3,3.7,15.3C3.7,15.4,3.7,15.4,3.7,15.3
		C3.7,15.4,3.8,15.4,3.7,15.3C3.8,15.3,3.7,15.3,3.7,15.3z M4.2,14.1C4.1,14.2,4,14.2,4,14.3h0.2V14.1z M4.4,14.5c0,0-0.1,0-0.1,0.1
		s0,0.1,0.1,0.1c0,0,0.1-0.1,0.1-0.1C4.5,14.6,4.4,14.6,4.4,14.5z M4.6,13.4C4.5,13.4,4.5,13.5,4.6,13.4C4.5,13.5,4.5,13.6,4.6,13.4
		C4.6,13.5,4.7,13.5,4.6,13.4C4.7,13.5,4.6,13.4,4.6,13.4z M4.5,13.8c0,0.1,0.1,0.1,0.2,0.2v-0.2H4.5z M5,16.4C5,16.4,5,16.5,5,16.4
		c-0.1,0.2,0,0.2,0,0.2S5.1,16.6,5,16.4C5.1,16.5,5.1,16.4,5,16.4z M5,17.7C5,17.7,5,17.8,5,17.7c-0.1,0.2,0,0.2,0,0.2
		S5.1,17.9,5,17.7C5.1,17.8,5.1,17.7,5,17.7z"/>
</g>
<g class="st0">
	<path class="st1" d="M4.5,29.6c0.2,0,0.3-0.1,0.3-0.2c0,0-0.1-0.1-0.1-0.1c-0.1,0.1-0.2,0.1-0.3,0.2c-0.1,0.1-0.2,0.2-0.3,0.2
		c0,0-0.1,0-0.1,0H4v-0.4c0,0,0,0-0.1,0c0,0,0,0-0.1,0c0,0,0,0,0,0.1c0,0-0.1,0-0.1,0.1c0,0,0,0-0.1,0.1c0,0.1,0,0.1-0.1,0.1
		c0,0-0.1,0-0.1,0c0,0,0,0,0,0s0,0,0,0c0,0,0,0-0.1,0c0,0-0.1,0-0.2,0c-0.1,0-0.1,0-0.2,0c0-0.1,0-0.2,0-0.3c0-0.1,0-0.1,0-0.2
		c-0.1,0-0.2,0.1-0.4,0.2c-0.2,0.1-0.3,0.2-0.3,0.3c0.1-0.3,0-0.5-0.1-0.7c-0.1-0.2-0.3-0.4-0.5-0.5c-0.2-0.2-0.4-0.3-0.5-0.4
		c-0.2-0.1-0.2-0.2-0.2-0.4c0-0.1,0-0.2,0-0.3c0-0.1,0-0.2,0-0.3c-0.2,0-0.2,0-0.2,0.1c0,0.1,0,0.2-0.1,0.3h0c0,0-0.1-0.1-0.1-0.4
		c-0.1-0.3-0.1-0.5-0.2-0.8c-0.1-0.3-0.1-0.6-0.1-0.8c0-0.3-0.1-0.4-0.1-0.4c0-0.1,0-0.2,0-0.3c0-0.1,0.1-0.1,0.2-0.1h0.1
		c0,0,0,0.1,0,0.2c0,0.1,0,0.1,0,0.1h0.1L1.5,24c0.2-0.2,0.5-0.4,0.7-0.5c0.2-0.2,0.3-0.2,0.4-0.2v0.7c0.2,0,0.3,0,0.4-0.1
		c0.1-0.1,0.2-0.2,0.3-0.3c0,0,0.1,0.1,0.3,0.4c0.2,0.2,0.3,0.4,0.3,0.5c0,0.1,0,0.1,0,0.1c0,0,0,0.1,0,0.1c0,0.2,0,0.3,0,0.3
		c0,0,0.1,0.1,0.2,0.1c0-0.2,0-0.3,0.1-0.4s0.1-0.3,0.1-0.4c0-0.2-0.1-0.4-0.2-0.4c-0.1-0.1-0.2-0.2-0.2-0.3c0,0,0-0.1,0-0.1
		c0.1-0.1,0.1-0.1,0.1-0.1C3.9,23.1,4,23,4,23c0,0,0.1,0,0.2,0.1c0.1,0,0.1,0.1,0.2,0.1c0,0,0,0.1,0,0.1s0,0.1,0,0.1
		c0.3,0,0.5,0.1,0.6,0.3c0.1,0.2,0.2,0.4,0.2,0.7c0,0.3,0.1,0.5,0.1,0.8c0,0.3,0,0.5,0,0.7c0,0,0,0.1,0,0.2c0,0.1,0,0.1,0,0.2v0.1
		c0,0.1,0,0.2,0,0.3c0,0.1,0,0.2,0,0.3c0,0.2,0,0.3,0.1,0.5c0.1,0.1,0.1,0.3,0.1,0.5c0,0,0,0.1,0,0.2c0,0.1-0.1,0.1-0.2,0.1h0
		c0,0-0.1-0.1-0.2-0.1c-0.1,0-0.1-0.1-0.1-0.1c0,0,0,0,0,0.1c0,0,0,0.1,0,0.1c0,0.1,0.1,0.2,0.2,0.3c0.2,0.1,0.2,0.2,0.2,0.3
		c0,0,0,0.1,0,0.2s0,0.2,0,0.2c0,0,0,0.1,0.1,0.1c0.1,0,0.1,0,0.1,0c0,0,0,0.1-0.1,0.1c0,0-0.1,0.1-0.1,0.2c0,0.1,0,0.2,0.1,0.2
		c0.1,0,0.1,0,0.1,0.1c0,0-0.1,0-0.3,0c-0.2,0-0.2,0.1-0.2,0.2C5.1,30,4.9,30,4.7,29.9C4.6,29.9,4.5,29.8,4.5,29.6z M1.5,24.4
		L1.5,24.4L1.5,24.4L1.5,24.4z M1.9,24.1c0,0.1,0.1,0.1,0.2,0.1c0.1,0,0.2-0.1,0.2-0.2c0-0.1,0-0.2,0-0.3c-0.1,0-0.2,0-0.2,0.1
		C2.1,24,2,24.1,1.9,24.1z M2.8,22.6c0,0,0-0.1,0.1-0.3c0-0.1,0-0.2,0-0.3h0c0,0,0.1,0,0.2,0.1c0.1,0.1,0.2,0.1,0.2,0.2
		c0,0,0,0.1-0.1,0.1c-0.1,0.1-0.2,0.1-0.2,0.2v0v0c0,0,0,0.1,0.1,0.1s0,0.1,0.1,0.1H3c-0.1,0-0.1,0-0.2-0.1c0-0.1,0-0.1,0-0.2V22.6z
		 M3.3,24.3h0.1c0,0,0-0.1,0-0.2s0-0.2-0.1-0.2V24.3z M3.7,26.3C3.7,26.3,3.7,26.3,3.7,26.3C3.7,26.4,3.7,26.4,3.7,26.3
		C3.7,26.4,3.8,26.4,3.7,26.3C3.8,26.3,3.7,26.3,3.7,26.3z M4.2,25.1C4.1,25.2,4,25.2,4,25.3h0.2V25.1z M4.4,25.5c0,0-0.1,0-0.1,0.1
		s0,0.1,0.1,0.1c0,0,0.1-0.1,0.1-0.1C4.5,25.6,4.4,25.6,4.4,25.5z M4.6,24.4C4.5,24.4,4.5,24.5,4.6,24.4C4.5,24.5,4.5,24.6,4.6,24.4
		C4.6,24.5,4.7,24.5,4.6,24.4C4.7,24.5,4.6,24.4,4.6,24.4z M4.5,24.8c0,0.1,0.1,0.1,0.2,0.2v-0.2H4.5z M5,27.4C5,27.4,5,27.5,5,27.4
		c-0.1,0.2,0,0.2,0,0.2S5.1,27.6,5,27.4C5.1,27.5,5.1,27.4,5,27.4z M5,28.7C5,28.7,5,28.8,5,28.7c-0.1,0.2,0,0.2,0,0.2
		S5.1,28.9,5,28.7C5.1,28.8,5.1,28.7,5,28.7z"/>
</g>
</svg>
