<svg xmlns="http://www.w3.org/2000/svg" viewBox="0 0 92 59"><defs><style>.cls-1{fill:#3bffb4;}.cls-2{opacity:0.05;}.cls-3{fill:none;}</style></defs><title>pattern_3</title><g id="Layer_2" data-name="Layer 2"><g id="Layer_1-2" data-name="Layer 1"><rect class="cls-1" width="92" height="59"/><g class="cls-2"><polygon class="cls-3" points="91.95 0 66.69 0 48.25 18.45 46.13 20.57 44 18.45 25.56 0 0.3 0 46.13 45.83 91.95 0"/><polygon class="cls-3" points="92 4.19 48.13 47.95 46 50.07 43.87 47.95 0 4.19 0 29.45 29.63 59 62.37 59 92 29.45 92 4.19"/><polygon class="cls-3" points="0 59 25.31 59 0 33.69 0 59"/><polygon class="cls-3" points="62.45 0 29.8 0 46.13 16.33 62.45 0"/><polygon class="cls-3" points="66.69 59 92 59 92 33.69 66.69 59"/><polygon points="92 29.45 62.45 59 66.69 59 92 33.69 92 29.45"/><polygon points="0 33.69 25.31 59 29.55 59 0 29.45 0 33.69"/><polygon points="46 50.07 48.13 47.95 92 4.19 92 0 91.95 0 46 45.83 0.05 0 0 0 0 4.19 43.87 47.95 46 50.07"/><polygon points="46.13 20.57 48.25 18.45 66.69 0 62.45 0 46.13 16.33 29.8 0 25.56 0 44 18.45 46.13 20.57"/></g></g></g></svg>